<?xml version="1.0" encoding="utf-8"?>
<!-- Generator: Adobe Illustrator 26.0.1, SVG Export Plug-In . SVG Version: 6.00 Build 0)  -->
<svg version="1.1" id="Capa_1" xmlns="http://www.w3.org/2000/svg" xmlns:xlink="http://www.w3.org/1999/xlink" x="0px" y="0px"
	 viewBox="0 0 595.28 841.89" style="enable-background:new 0 0 595.28 841.89;" xml:space="preserve">
<style type="text/css">
	.st0{fill:url(#SVGID_1_);}
	.st1{fill:url(#SVGID_00000034797857680723793110000016777050921110615989_);}
	
		.st2{fill:url(#SVGID_00000060715121783067537010000013089076182149833388_);stroke:url(#SVGID_00000033340066659940468730000014615744707061281966_);stroke-miterlimit:10;}
	.st3{fill:#FFFFFF;}
	.st4{fill:none;stroke:url(#SVGID_00000021816690100212643690000010887239114162989232_);stroke-miterlimit:10;}
	.st5{fill:none;stroke:url(#SVGID_00000040548200317561347630000003661534674520029865_);stroke-miterlimit:10;}
	.st6{fill:url(#SVGID_00000176035262789253187930000018016068089723452035_);}
	.st7{fill:url(#SVGID_00000176039872457328850170000001948702148513532838_);}
	.st8{fill:url(#SVGID_00000090289315242039144130000004201847794490079386_);}
	.st9{fill:url(#SVGID_00000166638100642677629630000007851571249166394268_);}
	.st10{fill:none;stroke:url(#SVGID_00000056411040260852016530000015467884572729974207_);stroke-width:0.75;stroke-miterlimit:10;}
	.st11{fill:url(#SVGID_00000115492840920848709860000015342400853821710266_);}
	.st12{fill:url(#SVGID_00000107590492175108100720000013722547005501657990_);}
	.st13{fill:url(#SVGID_00000097463504453307763770000012920799638629628085_);}
	.st14{fill:none;stroke:url(#SVGID_00000013193994255883189390000005401854178412620685_);stroke-width:0.75;stroke-miterlimit:10;}
	.st15{fill:none;stroke:#000000;stroke-width:0.5;stroke-miterlimit:10;}
	.st16{fill:none;stroke:url(#SVGID_00000124134664006831956910000014587929375754156442_);stroke-width:0.75;stroke-miterlimit:10;}
	.st17{fill:none;stroke:url(#SVGID_00000100383783415080150670000017147166253164653444_);stroke-width:0.75;stroke-miterlimit:10;}
	.st18{fill:none;stroke:url(#SVGID_00000157995795466030886220000002570699716253383326_);stroke-width:0.75;stroke-miterlimit:10;}
	.st19{fill:none;stroke:#000000;stroke-miterlimit:10;}
	.st20{fill:none;stroke:url(#SVGID_00000028313495389211015340000012147908779529014929_);stroke-width:0.75;stroke-miterlimit:10;}
	.st21{fill:none;stroke:url(#SVGID_00000159433388968441270060000017040126766273389456_);stroke-width:0.75;stroke-miterlimit:10;}
	.st22{fill:none;stroke:url(#SVGID_00000177445877459209809250000002814334720146143923_);stroke-width:0.75;stroke-miterlimit:10;}
	.st23{fill:none;stroke:url(#SVGID_00000150803741364565985680000003778846756683508374_);stroke-width:0.75;stroke-miterlimit:10;}
	.st24{fill:none;stroke:url(#SVGID_00000000943467555529776120000007576388857060975781_);stroke-width:0.75;stroke-miterlimit:10;}
	.st25{fill:url(#SVGID_00000134953166778532513110000011930790896589640065_);}
	.st26{fill:url(#SVGID_00000063611614864605245280000011868530226648986013_);}
	
		.st27{fill:url(#SVGID_00000163040379668029558100000017303646855996883129_);stroke:url(#SVGID_00000023283486151759098920000017750126927471691961_);stroke-miterlimit:10;}
	.st28{fill:none;stroke:url(#SVGID_00000147214184523193276520000006159059650729013693_);stroke-miterlimit:10;}
	.st29{fill:none;stroke:url(#SVGID_00000090264520133333542240000011727198856377080240_);stroke-miterlimit:10;}
	.st30{fill:url(#SVGID_00000029019758364850492330000005515811528048039328_);}
	.st31{fill:url(#SVGID_00000048479434139092152680000009511649523544914358_);}
	.st32{fill:url(#SVGID_00000026157574067865121190000010346400559441637044_);}
	.st33{fill:url(#SVGID_00000127730604456721158830000001021444720413250230_);}
	.st34{fill:none;stroke:url(#SVGID_00000010291489910264710810000000050166539664879772_);stroke-width:0.75;stroke-miterlimit:10;}
	.st35{fill:url(#SVGID_00000005946431920406391770000016537020627466207935_);}
	.st36{fill:url(#SVGID_00000093138737673795480460000008659810506952337542_);}
	.st37{fill:url(#SVGID_00000064323582078911848760000013446732085205869481_);}
	.st38{fill:none;stroke:url(#SVGID_00000145773247303847694440000014884379582424619153_);stroke-width:0.75;stroke-miterlimit:10;}
	.st39{fill:none;stroke:url(#SVGID_00000021099306028947594500000007727845001794175394_);stroke-width:0.75;stroke-miterlimit:10;}
	.st40{fill:none;stroke:url(#SVGID_00000097465954804179040200000013982295057185597599_);stroke-width:0.75;stroke-miterlimit:10;}
	.st41{fill:none;stroke:url(#SVGID_00000179604413703100346030000015496487163301056426_);stroke-width:0.75;stroke-miterlimit:10;}
	.st42{fill:none;stroke:url(#SVGID_00000125590707479952307590000002944709954604798631_);stroke-width:0.75;stroke-miterlimit:10;}
	.st43{fill:none;stroke:url(#SVGID_00000076598565507597143300000014927759795416049291_);stroke-width:0.75;stroke-miterlimit:10;}
	.st44{fill:none;stroke:url(#SVGID_00000152969183266051081120000002944507644355670914_);stroke-width:0.75;stroke-miterlimit:10;}
	.st45{fill:none;stroke:url(#SVGID_00000066505763310171871300000008821184706669855145_);stroke-width:0.75;stroke-miterlimit:10;}
	.st46{fill:none;stroke:url(#SVGID_00000062163364496363377440000001938168470321427381_);stroke-width:0.75;stroke-miterlimit:10;}
	.st47{fill:none;stroke:url(#SVGID_00000137827452319969483190000006303076711574483885_);stroke-width:0.75;stroke-miterlimit:10;}
	.st48{fill:none;stroke:url(#SVGID_00000112602357001149788550000000006653850719411337_);stroke-width:0.75;stroke-miterlimit:10;}
	.st49{fill:none;stroke:url(#SVGID_00000076586728888735915630000017952721226829287575_);stroke-width:0.75;stroke-miterlimit:10;}
	.st50{fill:url(#SVGID_00000126282894860667965100000016075741529984767414_);}
	.st51{fill:url(#SVGID_00000013901331132123013360000005697378459841127042_);}
	
		.st52{fill:url(#SVGID_00000024714411737313169400000008195126596036564868_);stroke:url(#SVGID_00000000220942298021085120000012439966394787222448_);stroke-miterlimit:10;}
	.st53{fill:none;stroke:url(#SVGID_00000049204907035376885960000002019157851322247557_);stroke-miterlimit:10;}
	.st54{fill:none;stroke:url(#SVGID_00000083805852640952590310000012435208891175448974_);stroke-miterlimit:10;}
	.st55{fill:url(#SVGID_00000050638231280519576280000016997960345643494808_);}
	.st56{fill:url(#SVGID_00000033360192903135086950000012661559104098284959_);}
	.st57{fill:url(#SVGID_00000111883751885955149080000001255540471291771567_);}
	.st58{fill:url(#SVGID_00000023260733150742639270000007152445187021567137_);}
	.st59{fill:none;stroke:url(#SVGID_00000163773816698410182030000009961183957040760204_);stroke-width:0.75;stroke-miterlimit:10;}
	.st60{fill:url(#SVGID_00000118391868247604922080000000071958056738614934_);}
	.st61{fill:url(#SVGID_00000116944176842206044080000005353185065732687032_);}
	.st62{fill:url(#SVGID_00000174560106136964862860000008785033645911248529_);}
	.st63{fill:none;stroke:url(#SVGID_00000145027942523927381760000004463056369270073495_);stroke-width:0.75;stroke-miterlimit:10;}
	.st64{fill:none;stroke:url(#SVGID_00000078035202863357316040000010358762476756699561_);stroke-width:0.75;stroke-miterlimit:10;}
	.st65{fill:none;stroke:url(#SVGID_00000062873994820250902140000015321801594785973913_);stroke-width:0.75;stroke-miterlimit:10;}
	.st66{fill:none;stroke:url(#SVGID_00000013877681164968005520000012624614901274530706_);stroke-width:0.75;stroke-miterlimit:10;}
	.st67{fill:none;stroke:url(#SVGID_00000026874949808585614080000013730655009017959085_);stroke-width:0.75;stroke-miterlimit:10;}
	.st68{fill:none;stroke:url(#SVGID_00000057837282177836040580000007009645196109032872_);stroke-width:0.75;stroke-miterlimit:10;}
	.st69{fill:none;stroke:url(#SVGID_00000082345675303323146830000002351916720569512845_);stroke-width:0.75;stroke-miterlimit:10;}
	.st70{fill:none;stroke:url(#SVGID_00000181054582946687407890000016106507765804882325_);stroke-width:0.75;stroke-miterlimit:10;}
	.st71{fill:none;stroke:url(#SVGID_00000160152200739669971660000005106502376830708633_);stroke-width:0.75;stroke-miterlimit:10;}
	.st72{fill:none;stroke:url(#SVGID_00000016763482848262331090000004551248237064457354_);stroke-width:0.75;stroke-miterlimit:10;}
	.st73{fill:none;stroke:url(#SVGID_00000042725510299749384910000008177363505939928223_);stroke-width:0.75;stroke-miterlimit:10;}
	.st74{fill:none;stroke:url(#SVGID_00000152252207559268162120000003257831035097829260_);stroke-width:0.75;stroke-miterlimit:10;}
	.st75{fill:url(#SVGID_00000076583064195847991770000007875560994691392390_);}
	.st76{fill:url(#SVGID_00000183956764132711723130000010545958799206247868_);}
	
		.st77{fill:url(#SVGID_00000029045272749722911900000004217399400754552507_);stroke:url(#SVGID_00000032623529014103491990000004468079364872445869_);stroke-miterlimit:10;}
	.st78{fill:none;stroke:url(#SVGID_00000072264901772127726270000007814281000903556510_);stroke-miterlimit:10;}
	.st79{fill:none;stroke:url(#SVGID_00000083046819426164647440000011070988177550926253_);stroke-miterlimit:10;}
	.st80{fill:url(#SVGID_00000072249977018558124090000003252178580381638322_);}
	.st81{fill:url(#SVGID_00000000191925787928276290000001757957825749767595_);}
	.st82{fill:url(#SVGID_00000155837810620619147220000017839312914756143524_);}
	.st83{fill:url(#SVGID_00000026154890217365417230000004425252270382840253_);}
	.st84{fill:none;stroke:url(#SVGID_00000109711339662400775930000009463666686129115315_);stroke-width:0.75;stroke-miterlimit:10;}
	.st85{fill:url(#SVGID_00000158717093797498472770000011857993995160808596_);}
	.st86{fill:url(#SVGID_00000180357570864657132940000015959704286282356655_);}
	.st87{fill:url(#SVGID_00000025426418937619588610000007542135351037468071_);}
	.st88{fill:none;stroke:url(#SVGID_00000069393177118725177750000005320724408713535385_);stroke-width:0.75;stroke-miterlimit:10;}
	.st89{fill:none;stroke:url(#SVGID_00000152982441734196239610000017897745118747246245_);stroke-width:0.75;stroke-miterlimit:10;}
	.st90{fill:none;stroke:url(#SVGID_00000134214360845152240400000006179496049127850142_);stroke-width:0.75;stroke-miterlimit:10;}
	.st91{fill:none;stroke:url(#SVGID_00000124878971012871490220000005784791100949569206_);stroke-width:0.75;stroke-miterlimit:10;}
	.st92{fill:none;stroke:url(#SVGID_00000086678092362572559470000000289533416348987035_);stroke-width:0.75;stroke-miterlimit:10;}
	.st93{fill:none;stroke:url(#SVGID_00000070117771369353972810000003825125123667598268_);stroke-width:0.75;stroke-miterlimit:10;}
	.st94{fill:none;stroke:url(#SVGID_00000067954052109339579500000008643326602952356257_);stroke-width:0.75;stroke-miterlimit:10;}
	.st95{fill:none;stroke:url(#SVGID_00000005268524334089447650000003367763586545184934_);stroke-width:0.75;stroke-miterlimit:10;}
	.st96{fill:none;stroke:url(#SVGID_00000003820367122719828890000012724932271243913607_);stroke-width:0.75;stroke-miterlimit:10;}
	.st97{fill:none;stroke:url(#SVGID_00000018918587611945606300000015105456030043560590_);stroke-width:0.75;stroke-miterlimit:10;}
	.st98{fill:none;stroke:url(#SVGID_00000023239076516528951340000013758396133842921638_);stroke-width:0.75;stroke-miterlimit:10;}
	.st99{fill:none;stroke:url(#SVGID_00000143601207118428920790000008805493447497057423_);stroke-width:0.75;stroke-miterlimit:10;}
	.st100{fill:url(#SVGID_00000021831736005809138070000004698742627513976462_);}
	.st101{fill:url(#SVGID_00000172437633404426264900000003101658223156145053_);}
	
		.st102{fill:url(#SVGID_00000135665628500444984880000009024866597559979667_);stroke:url(#SVGID_00000001652242191957357280000017074749483183697557_);stroke-miterlimit:10;}
	.st103{font-family:'Roboto-Bold';}
	.st104{font-size:9px;}
	.st105{font-family:'Roboto-Regular';}
	.st106{enable-background:new    ;}
	.st107{font-family:'Roboto-Medium';}
	.st108{font-size:11px;}
	.st109{fill:none;stroke:url(#SVGID_00000131342111965188156100000002854623449135032980_);stroke-miterlimit:10;}
	.st110{fill:#1C191A;}
	.st111{font-size:12px;}
	.st112{letter-spacing:9;}
	.st113{fill:none;stroke:url(#SVGID_00000131335806625593865810000001458223910407138462_);stroke-miterlimit:10;}
	.st114{fill:url(#SVGID_00000109732250625237718260000013451896899937929621_);}
	.st115{fill:url(#SVGID_00000135684470357455130670000003470291349594523284_);}
	.st116{fill:url(#SVGID_00000053530708031155442520000010251777508850113198_);}
	.st117{fill:url(#SVGID_00000116199369922422983710000007731072015636059582_);}
	
		.st118{fill:none;stroke:url(#SVGID_00000147913898216137213300000003627166709187625653_);stroke-width:0.75;stroke-miterlimit:10;}
	.st119{font-size:7.4746px;}
	.st120{fill:url(#SVGID_00000070830764474072009520000009771439030834906263_);}
	.st121{fill:url(#SVGID_00000056413023701966330610000000251738388157221024_);}
	.st122{fill:url(#SVGID_00000037668435812483181590000004027248016211225235_);}
	
		.st123{fill:none;stroke:url(#SVGID_00000129915913621466909730000011575251072044562612_);stroke-width:0.75;stroke-miterlimit:10;}
	
		.st124{fill:none;stroke:url(#SVGID_00000160880929507503746170000013490340445351686295_);stroke-width:0.75;stroke-miterlimit:10;}
	
		.st125{fill:none;stroke:url(#SVGID_00000115496074882753374550000017310680742010103182_);stroke-width:0.75;stroke-miterlimit:10;}
	
		.st126{fill:none;stroke:url(#SVGID_00000111878287281451812300000007721389997306373550_);stroke-width:0.75;stroke-miterlimit:10;}
	
		.st127{fill:none;stroke:url(#SVGID_00000132780481329135733600000009217142797718312381_);stroke-width:0.75;stroke-miterlimit:10;}
	
		.st128{fill:none;stroke:url(#SVGID_00000079453915193253675560000009400319548594578048_);stroke-width:0.75;stroke-miterlimit:10;}
	
		.st129{fill:none;stroke:url(#SVGID_00000165217945347839666350000013399255922249349021_);stroke-width:0.75;stroke-miterlimit:10;}
	
		.st130{fill:none;stroke:url(#SVGID_00000021824910633398788990000015214487255068638859_);stroke-width:0.75;stroke-miterlimit:10;}
	.st131{font-size:8px;}
	.st132{font-size:7.5296px;}
	
		.st133{fill:none;stroke:url(#SVGID_00000098186666293996265950000002434770522514249649_);stroke-width:0.75;stroke-miterlimit:10;}
	
		.st134{fill:none;stroke:url(#SVGID_00000181047637931764590450000017079509890366692271_);stroke-width:0.75;stroke-miterlimit:10;}
	
		.st135{fill:none;stroke:url(#SVGID_00000116228616607098011030000013082314445382376593_);stroke-width:0.75;stroke-miterlimit:10;}
	
		.st136{fill:none;stroke:url(#SVGID_00000106836081078227233470000006806693324981322118_);stroke-width:0.75;stroke-miterlimit:10;}
	.st137{fill:url(#SVGID_00000150060041861255796670000016308318738730238122_);}
	.st138{fill:url(#SVGID_00000172418132776471216640000005597823152074001301_);}
	.st139{fill:url(#SVGID_00000124867226329954850750000003887775738216366482_);}
	.st140{fill:#231F20;}
	.st141{opacity:0.5;fill:url(#SVGID_00000022541500057408422330000008744784099782931598_);}
	.st142{opacity:0.5;fill:url(#SVGID_00000141427866792697491190000012306384216171765682_);}
	.st143{fill:url(#SVGID_00000135689506199491408650000006412854292098779528_);}
	.st144{fill:url(#SVGID_00000028285369412364520370000013224347343151065004_);}
	.st145{opacity:0.3;fill:url(#SVGID_00000171686687756931600010000000715240523064583572_);}
	.st146{fill:url(#SVGID_00000098938312324544814130000006149335924882729113_);}
	.st147{fill:url(#SVGID_00000162337574961544398580000003794793102049780899_);}
	.st148{fill:url(#SVGID_00000024003239488812002510000001941748972943116971_);}
	.st149{fill:url(#SVGID_00000003814638964032860790000006515296284536396725_);}
	.st150{fill:url(#SVGID_00000094591413284626932220000017839430061401809538_);}
	.st151{fill:url(#SVGID_00000047740248111577413680000005306278654286840241_);}
	.st152{fill:url(#SVGID_00000023257389959064312470000008150003246153895845_);}
	.st153{opacity:0.5;}
	.st154{fill:#434345;}
	.st155{fill:url(#SVGID_00000173122719233724082470000007408369421706223293_);}
	.st156{opacity:0.5;fill:#231F20;}
	.st157{opacity:0.2;fill:#231F20;}
	.st158{fill:url(#SVGID_00000109005063038178821930000009956689190580492187_);}
	.st159{fill:url(#SVGID_00000134957159875212076880000000117643614231453088_);}
	.st160{fill:url(#SVGID_00000069357658815057619170000009378451993895837570_);}
	.st161{fill:url(#SVGID_00000127043843470319235980000004635734221448103598_);}
	.st162{fill:url(#SVGID_00000019645561424947262530000000661334892295393465_);}
	.st163{fill:url(#SVGID_00000050640884453902459770000010655859796215416746_);}
	.st164{fill:url(#SVGID_00000054969906901904814720000011147176659084627615_);}
	.st165{fill:url(#SVGID_00000028309392548152859930000005284584486432498324_);}
	.st166{fill:url(#SVGID_00000136412482626957432300000018213970468604584344_);}
	.st167{fill:url(#SVGID_00000049935029372410819430000000536628508685906863_);}
	.st168{fill:url(#SVGID_00000058560060133875069570000002035300952935424396_);}
	.st169{fill:url(#SVGID_00000031897509732048155790000000840129407051762595_);}
	.st170{fill:url(#SVGID_00000014608082895221258780000003773010100333790869_);}
	.st171{fill:url(#SVGID_00000168111454637279079740000001569986548874310039_);}
	.st172{fill:url(#SVGID_00000128448685233573947180000011201729863193412240_);}
	.st173{opacity:0.5;fill:#F7901E;}
	.st174{fill:#F7901E;}
	.st175{opacity:0.5;fill:#A30D11;}
	.st176{fill:url(#SVGID_00000161625767540358593340000000355099630618211239_);}
	.st177{fill:url(#SVGID_00000155839023323786856940000017214982751805681594_);}
	.st178{fill:#141414;}
	.st179{opacity:0.2;fill:#FFFFFF;}
	.st180{fill:#A30D11;}
	.st181{opacity:0.3;fill:#FFFFFF;}
	.st182{fill:#171717;}
	.st183{fill:url(#SVGID_00000028321677946854971700000014156473483522983585_);}
	.st184{fill:url(#SVGID_00000150823894974115354800000005358475691511698084_);}
	.st185{fill:url(#SVGID_00000075164779493662187480000008329688070067583414_);}
	.st186{fill:#ED1C24;}
	.st187{fill:url(#SVGID_00000158745915287620428180000013706607562792300951_);}
	.st188{fill:url(#SVGID_00000020392340912157847320000002071135392099229350_);}
	.st189{filter:url(#Adobe_OpacityMaskFilter);}
	.st190{filter:url(#Adobe_OpacityMaskFilter_00000062171221786092071050000002020299062084961962_);}
	
		.st191{mask:url(#SVGID_00000095336325765835239410000003090171538573751463_);fill:url(#SVGID_00000119796774503247177740000012982682371290779024_);}
	.st192{opacity:0.5;fill:url(#SVGID_00000176005008143464086030000000496119202096048783_);}
	.st193{filter:url(#Adobe_OpacityMaskFilter_00000086658524855742000780000002253714031041120181_);}
	.st194{filter:url(#Adobe_OpacityMaskFilter_00000051375313758712618850000000864306915040950681_);}
	
		.st195{mask:url(#SVGID_00000176753831943990287350000010219706879022753723_);fill:url(#SVGID_00000107555321688705373380000017703044849011806344_);}
	.st196{opacity:0.5;fill:url(#SVGID_00000140723057269178939320000006194845098890487461_);}
	.st197{filter:url(#Adobe_OpacityMaskFilter_00000096766460084028611620000013902790199619806645_);}
	.st198{filter:url(#Adobe_OpacityMaskFilter_00000066486122092765895400000009018026821120062398_);}
	
		.st199{mask:url(#SVGID_00000038410591485494743150000016795046417615243446_);fill:url(#SVGID_00000065068238318057709450000006648190321690268590_);}
	.st200{opacity:0.5;fill:url(#SVGID_00000132071983480766618040000007929335906834754974_);}
	.st201{filter:url(#Adobe_OpacityMaskFilter_00000000911017993051829410000005343466045194070150_);}
	.st202{filter:url(#Adobe_OpacityMaskFilter_00000039122404111691551840000014100302376186793354_);}
	
		.st203{mask:url(#SVGID_00000080175107835173995920000017569658898643972749_);fill:url(#SVGID_00000016065227769821457960000004899452598338794157_);}
	.st204{opacity:0.5;fill:url(#SVGID_00000029027101978711417490000008862945322384109758_);}
	.st205{fill:url(#SVGID_00000090256636170228534250000003561521386873116040_);}
	.st206{fill:url(#SVGID_00000057849215271981973190000008851728851029709234_);}
	.st207{fill:url(#SVGID_00000013874621734632937900000000565413721311998109_);}
	.st208{fill:url(#SVGID_00000075126848997819887370000000494206845265552797_);}
	.st209{fill:url(#SVGID_00000152251627239796526130000000396115283330660764_);}
	.st210{fill:url(#SVGID_00000093870833835891158070000013085384599700317834_);}
	.st211{fill:url(#SVGID_00000132786999055524473330000015576492779786850950_);}
	.st212{fill:url(#SVGID_00000049183684649691348130000014460276834182548655_);}
	.st213{fill:url(#SVGID_00000159447079315230508530000011697628372257493898_);}
	.st214{opacity:0.5;fill:url(#SVGID_00000160158514023637046980000008927807748446309274_);}
	.st215{fill:url(#SVGID_00000064346981751639777830000015249497239512643249_);}
	.st216{opacity:0.5;fill:url(#SVGID_00000001645611171384357040000004167113947330960818_);}
	.st217{fill:url(#SVGID_00000037675697821172280020000009245149341488241057_);}
	.st218{fill:url(#SVGID_00000170964321229250551120000004883560110648798368_);}
	.st219{fill:url(#SVGID_00000046306089287883934030000010355851149279174806_);}
	.st220{fill:url(#SVGID_00000125599198603556208200000003046880734701710000_);}
	.st221{fill:url(#SVGID_00000004528864282878181940000011375047330275284130_);}
	.st222{fill:url(#SVGID_00000028292726349323214630000012945708399261997748_);}
	.st223{fill:url(#SVGID_00000015314803831985242780000014258655688315361666_);}
	.st224{fill:url(#SVGID_00000097488525196976977280000013407791964349738684_);}
	.st225{fill:url(#SVGID_00000085969835146967921030000007631639367601690764_);}
	.st226{fill:url(#SVGID_00000070827149344000026200000016670264768673465275_);}
	.st227{fill:url(#SVGID_00000124852645963023454340000007338462317386739135_);}
	.st228{fill:url(#SVGID_00000033328897472150746230000003543233063279797436_);}
	.st229{fill:url(#SVGID_00000171707713375530077220000008717620598395041684_);}
	.st230{fill:url(#SVGID_00000151521717687866598040000012480305604954245791_);}
	.st231{fill:url(#SVGID_00000039116041804056152230000011135529184237128325_);}
	.st232{fill:url(#SVGID_00000062912652087941967710000005697121302133069443_);}
	.st233{fill:url(#SVGID_00000051360808024081407740000014977174670096947853_);}
	.st234{fill:url(#SVGID_00000098200333725051387420000003448287653614197898_);}
	.st235{fill:url(#SVGID_00000109741816682556918670000018353706354920975288_);}
	.st236{fill:url(#SVGID_00000111161573361523414760000015958206133113276854_);}
	.st237{fill:url(#SVGID_00000137094548988565932090000005509287844148935040_);}
	.st238{fill:url(#SVGID_00000155127424070021278130000015652016605025200831_);}
	.st239{fill:url(#SVGID_00000015348625913632386530000005538822577612167060_);}
	.st240{fill:url(#SVGID_00000153704793778459971230000009436933658479393208_);}
	.st241{fill:url(#SVGID_00000098195027594076839780000008908535980479074707_);}
	.st242{opacity:0.7;fill:url(#SVGID_00000142887816669075680480000000062078949160164021_);}
	.st243{opacity:0.7;fill:url(#SVGID_00000158710618403875305030000014331259449911318440_);}
	.st244{fill:url(#SVGID_00000144316852650033403540000002021626712101038264_);}
	.st245{fill:url(#SVGID_00000047739575063870517200000009219177235594347166_);}
	.st246{opacity:0.5;fill:#FFC20E;}
	.st247{filter:url(#Adobe_OpacityMaskFilter_00000085215745172604067150000008567212788641194685_);}
	.st248{filter:url(#Adobe_OpacityMaskFilter_00000128443595953297970200000004987502688605691835_);}
	
		.st249{mask:url(#SVGID_00000013879372081582053920000000844870446320175531_);fill:url(#SVGID_00000107590060290324008990000012724301129626700718_);}
	.st250{fill:url(#SVGID_00000105392434259069320500000002032709037728317599_);}
	.st251{fill:url(#SVGID_00000055665328367788255950000002895330057655882672_);}
	.st252{opacity:0.7;fill:url(#SVGID_00000062192352124268147340000006736911471968825235_);}
	.st253{opacity:0.7;fill:url(#SVGID_00000101073108117449891850000010753673866959380878_);}
	.st254{fill:url(#SVGID_00000116950612032062521250000011542242021739648944_);}
	.st255{fill:url(#SVGID_00000039106305729534780340000010056604802262524856_);}
	.st256{filter:url(#Adobe_OpacityMaskFilter_00000047765457789793763680000012657297286714692509_);}
	.st257{filter:url(#Adobe_OpacityMaskFilter_00000042702533639964955990000004764074088215292348_);}
	
		.st258{mask:url(#SVGID_00000112605403816599750370000009854512005520555962_);fill:url(#SVGID_00000155107698391392632660000017832008374356615820_);}
	.st259{fill:url(#SVGID_00000137853773624962127540000016490091042205153433_);}
	.st260{opacity:0.5;fill:#8B0304;}
	.st261{fill:url(#SVGID_00000180360795901132750000000017998359934563119525_);}
	.st262{fill:url(#SVGID_00000034799922290380920900000008360139592156182444_);}
	.st263{fill:url(#SVGID_00000065057845489680446870000001564507952333475748_);}
	.st264{fill:url(#SVGID_00000063631086462800373140000002657843334030118822_);}
	.st265{opacity:0.2;fill:url(#SVGID_00000158022264460316784600000009285460467933185409_);}
	.st266{opacity:0.2;fill:url(#SVGID_00000177470779192372557910000008033828286696706973_);}
	.st267{opacity:0.5;fill:url(#SVGID_00000020394221602631497390000015221458606722175397_);}
	.st268{opacity:0.5;fill:url(#SVGID_00000038374283936894709460000017431607154662820504_);}
	.st269{filter:url(#Adobe_OpacityMaskFilter_00000172426063956783633530000001294112073959188632_);}
	.st270{filter:url(#Adobe_OpacityMaskFilter_00000062161168483431522390000015571238975959404976_);}
	
		.st271{mask:url(#SVGID_00000143581009971593435620000002848592592698388657_);fill:url(#SVGID_00000162336857568785038350000002085452549687270313_);}
	.st272{fill:url(#SVGID_00000149359168375539734470000003237064758580325049_);}
	.st273{filter:url(#Adobe_OpacityMaskFilter_00000140711549005847680210000008286713474501356690_);}
	.st274{filter:url(#Adobe_OpacityMaskFilter_00000176040198474009910960000001636970934811316915_);}
	
		.st275{mask:url(#SVGID_00000016761630771706408090000000048319954707007926_);fill:url(#SVGID_00000026877620651977017980000001426992714062143391_);}
	.st276{fill:url(#SVGID_00000024716728647067451560000011929002652835116696_);}
	.st277{opacity:0.1;}
	.st278{opacity:0.1;fill:#FFFFFF;}
	.st279{fill:url(#SVGID_00000142891890381232687480000008429546508961445290_);}
	.st280{filter:url(#Adobe_OpacityMaskFilter_00000111895598111578317250000018283136562469138848_);}
	.st281{filter:url(#Adobe_OpacityMaskFilter_00000178883981005775157250000009288981830733819783_);}
	
		.st282{mask:url(#SVGID_00000099645233555197475340000004661588770141031609_);fill:url(#SVGID_00000178891620904201334770000007991502047218346663_);}
	.st283{opacity:0.5;fill:url(#SVGID_00000116213248619882695910000017970319765196725127_);}
	.st284{fill:#252525;}
	.st285{fill:#EA112E;}
	.st286{fill:#3C3C3C;}
	.st287{fill:#E2E4DD;}
	.st288{fill:#FF9A0B;}
	.st289{fill:#84001F;}
	.st290{font-family:'Roboto-MediumItalic';}
	.st291{clip-path:url(#SVGID_00000176026801302592111460000005155802308341268367_);}
	.st292{fill:#58595B;}
	.st293{fill:#454547;}
	.st294{clip-path:url(#SVGID_00000070836895625685504260000010880841749167309472_);}
	.st295{clip-path:url(#SVGID_00000160175894869468038230000017927383964626733467_);}
	.st296{clip-path:url(#SVGID_00000148625671184394327160000006265583822469002911_);}
	.st297{fill:url(#SVGID_00000168813354286248782460000000063463291113342623_);}
	.st298{fill:#B7001F;}
	.st299{fill:url(#SVGID_00000092438259354134769040000001603034606403335591_);}
	.st300{fill:url(#SVGID_00000059283144292599700130000017951710792941744802_);}
	.st301{fill:#EC4136;}
	.st302{fill:#414042;}
	.st303{fill:#A7A9AC;}
	.st304{fill:#6C0815;}
	.st305{fill:#2B2A2B;}
	.st306{fill:#878FB2;}
	.st307{fill:#424B6B;}
</style>
<linearGradient id="SVGID_1_" gradientUnits="userSpaceOnUse" x1="14.16" y1="690.0354" x2="203.3" y2="690.0354" gradientTransform="matrix(1 0 0 -1 0 840.8504)">
	<stop  offset="0" style="stop-color:#14356E"/>
	<stop  offset="0.0371" style="stop-color:#16366F;stop-opacity:0.9629"/>
	<stop  offset="0.6611" style="stop-color:#285286;stop-opacity:0.3389"/>
	<stop  offset="1" style="stop-color:#305E90;stop-opacity:0"/>
</linearGradient>
<rect x="14.16" y="142.67" class="st0" width="189.14" height="16.29"/>
<linearGradient id="SVGID_00000100349485986297055800000000542398529423117220_" gradientUnits="userSpaceOnUse" x1="735.1713" y1="231.6398" x2="930.9113" y2="231.6398" gradientTransform="matrix(-1 0 0 1 1316.1313 -80.8248)">
	<stop  offset="0" style="stop-color:#14356E"/>
	<stop  offset="0.0371" style="stop-color:#16366F;stop-opacity:0.9629"/>
	<stop  offset="0.6611" style="stop-color:#285286;stop-opacity:0.3389"/>
	<stop  offset="1" style="stop-color:#305E90;stop-opacity:0"/>
</linearGradient>
<polygon style="fill:url(#SVGID_00000100349485986297055800000000542398529423117220_);" points="385.22,158.96 580.96,158.96 
	580.96,142.67 385.22,142.67 "/>
<linearGradient id="SVGID_00000134222365129809462910000005685994515381492874_" gradientUnits="userSpaceOnUse" x1="14.08" y1="783.7854" x2="580.94" y2="783.7854" gradientTransform="matrix(1 0 0 -1 0 840.8504)">
	<stop  offset="0" style="stop-color:#14356E"/>
	<stop  offset="0.0371" style="stop-color:#16366F"/>
	<stop  offset="0.6611" style="stop-color:#285286"/>
	<stop  offset="1" style="stop-color:#305E90"/>
</linearGradient>
<linearGradient id="SVGID_00000108276792307152981500000017476223905501319846_" gradientUnits="userSpaceOnUse" x1="13.58" y1="783.7854" x2="581.44" y2="783.7854" gradientTransform="matrix(1 0 0 -1 0 840.8504)">
	<stop  offset="0" style="stop-color:#14356E"/>
	<stop  offset="0.0371" style="stop-color:#16366F"/>
	<stop  offset="0.6611" style="stop-color:#285286"/>
	<stop  offset="1" style="stop-color:#305E90"/>
</linearGradient>
<rect x="14.08" y="14.28" style="fill:url(#SVGID_00000134222365129809462910000005685994515381492874_);stroke:url(#SVGID_00000108276792307152981500000017476223905501319846_);stroke-miterlimit:10;" width="566.86" height="85.57"/>
<g>
	<g>
		<g>
			<path class="st3" d="M73.89,57.26l7.12-33.11c0,0,7.63-0.04,9.43,6.75c0.8,3.02-0.07,7.16-1.48,13.59c0,0,12.39-7.27,17.19,1.6
				c0,0-19.69,12.2-23.26,17.25l-5.7-7.15L73.89,57.26"/>
			<path class="st3" d="M72.6,63.8c0,0,6.56,5.45,8.41,9.8c0,0,26.25-28.7,39.75-28.88c0,0-3.37,1.2-7.02,4.02
				c-1.45,1.12-4.71,4.07-4.71,4.07s0.46,6.75-1.29,12.85c-1.07,2.78-4.04,10.5-11.8,12.68c-7.37,2.07-13.73-2.35-14.73-3.07
				c0,0-3.6,4.16-11.74,1.29L72.6,63.8z"/>
		</g>
		<g>
			<g>
				<path class="st3" d="M59.52,90.36l0.87-5.46h2.26c0.39,0,0.72,0.03,1,0.09s0.5,0.14,0.68,0.25s0.31,0.24,0.39,0.39
					s0.13,0.32,0.13,0.51c0,0.16-0.03,0.31-0.08,0.45s-0.14,0.27-0.25,0.39s-0.26,0.23-0.43,0.32c-0.18,0.1-0.38,0.17-0.63,0.24
					c0.4,0.08,0.7,0.2,0.89,0.38c0.19,0.17,0.29,0.4,0.29,0.67c0,0.25-0.06,0.48-0.18,0.7c-0.12,0.22-0.29,0.4-0.52,0.56
					c-0.23,0.16-0.5,0.28-0.83,0.37c-0.33,0.09-0.69,0.13-1.11,0.13h-2.48V90.36z M61.16,87.96L60.9,89.6h1.19
					c0.23,0,0.42-0.02,0.58-0.07c0.16-0.05,0.3-0.11,0.4-0.2c0.11-0.09,0.18-0.19,0.23-0.31c0.05-0.12,0.08-0.26,0.08-0.4
					c0-0.2-0.08-0.36-0.24-0.48s-0.43-0.18-0.8-0.18H61.16z M61.27,87.28h0.93c0.43,0,0.77-0.08,1-0.24
					c0.24-0.16,0.35-0.4,0.35-0.73c0-0.23-0.08-0.4-0.25-0.5s-0.43-0.16-0.78-0.16h-1L61.27,87.28z"/>
				<path class="st3" d="M62,90.42h-2.54l0.01-0.06l0.87-5.5h2.3c0.39,0,0.73,0.03,1.01,0.09s0.52,0.15,0.7,0.26
					s0.32,0.25,0.41,0.41c0.09,0.16,0.13,0.34,0.13,0.54c0,0.16-0.03,0.32-0.08,0.47c-0.06,0.15-0.14,0.29-0.26,0.41
					s-0.27,0.24-0.45,0.34c-0.13,0.07-0.27,0.13-0.44,0.18c0.31,0.08,0.55,0.2,0.71,0.35c0.21,0.18,0.31,0.42,0.31,0.71
					c0,0.26-0.06,0.5-0.19,0.73c-0.12,0.22-0.3,0.42-0.54,0.58c-0.23,0.16-0.52,0.29-0.85,0.38C62.79,90.37,62.41,90.42,62,90.42z
					 M59.58,90.31H62c0.41,0,0.77-0.04,1.09-0.13s0.59-0.21,0.81-0.36s0.39-0.33,0.5-0.54s0.17-0.43,0.17-0.67
					c0-0.26-0.09-0.46-0.27-0.63c-0.19-0.17-0.48-0.29-0.86-0.37l-0.23-0.05l0.23-0.06c0.24-0.06,0.44-0.14,0.62-0.23
					c0.17-0.09,0.31-0.2,0.42-0.31c0.11-0.12,0.19-0.24,0.24-0.38c0.05-0.13,0.08-0.28,0.08-0.43c0-0.18-0.04-0.34-0.12-0.49
					c-0.08-0.14-0.2-0.27-0.37-0.37c-0.17-0.1-0.39-0.19-0.66-0.24c-0.27-0.06-0.61-0.09-0.99-0.09h-2.21L59.58,90.31z M62.09,89.65
					h-1.26l0.01-0.06l0.27-1.69h1.23c0.38,0,0.66,0.06,0.83,0.19c0.18,0.13,0.27,0.3,0.27,0.52c0,0.15-0.03,0.29-0.08,0.42
					c-0.05,0.13-0.14,0.24-0.25,0.33c-0.11,0.09-0.25,0.16-0.42,0.21C62.53,89.63,62.33,89.65,62.09,89.65z M60.97,89.55h1.13
					c0.22,0,0.41-0.02,0.57-0.07c0.15-0.05,0.28-0.11,0.38-0.19c0.1-0.08,0.17-0.18,0.22-0.29c0.05-0.12,0.07-0.24,0.07-0.38
					c0-0.18-0.07-0.32-0.22-0.43s-0.41-0.17-0.77-0.17h-1.14L60.97,89.55z M62.2,87.34h-1l0.28-1.73h1.05
					c0.36,0,0.63,0.06,0.81,0.16c0.18,0.11,0.28,0.3,0.28,0.55c0,0.34-0.13,0.6-0.38,0.77C62.99,87.25,62.65,87.34,62.2,87.34z
					 M61.33,87.23h0.87c0.42,0,0.75-0.08,0.97-0.23s0.33-0.37,0.33-0.68c0-0.21-0.07-0.36-0.23-0.45c-0.16-0.1-0.41-0.15-0.75-0.15
					h-0.96L61.33,87.23z"/>
			</g>
			<g>
				<path class="st3" d="M68.11,89.58c0.23,0,0.44-0.03,0.63-0.1c0.19-0.07,0.36-0.16,0.5-0.28c0.14-0.12,0.26-0.27,0.35-0.44
					c0.09-0.17,0.15-0.36,0.19-0.57l0.52-3.28h1.26l-0.52,3.28c-0.05,0.32-0.16,0.62-0.33,0.89s-0.39,0.51-0.65,0.71
					s-0.57,0.35-0.92,0.47c-0.35,0.11-0.74,0.17-1.16,0.17c-0.38,0-0.72-0.05-1.01-0.14c-0.3-0.09-0.54-0.22-0.75-0.39
					c-0.2-0.17-0.36-0.36-0.46-0.59c-0.11-0.23-0.16-0.48-0.16-0.76c0-0.11,0.01-0.23,0.03-0.36l0.51-3.28h1.26l-0.52,3.28
					c-0.01,0.05-0.01,0.09-0.01,0.14s-0.01,0.09-0.01,0.13c0,0.17,0.03,0.33,0.08,0.46c0.05,0.14,0.13,0.26,0.24,0.35
					c0.11,0.1,0.24,0.17,0.39,0.23C67.73,89.55,67.91,89.58,68.11,89.58z"/>
				<path class="st3" d="M67.98,90.48c-0.38,0-0.73-0.05-1.03-0.14c-0.3-0.09-0.56-0.23-0.76-0.4c-0.21-0.17-0.37-0.38-0.48-0.61
					c-0.11-0.24-0.16-0.5-0.16-0.78c0-0.12,0.01-0.24,0.03-0.37l0.52-3.33h1.37l-0.01,0.06l-0.52,3.28
					c-0.01,0.05-0.01,0.09-0.01,0.13s-0.01,0.09-0.01,0.13c0,0.16,0.03,0.31,0.08,0.44c0.05,0.13,0.13,0.24,0.22,0.33
					c0.1,0.09,0.22,0.16,0.37,0.22c0.15,0.05,0.32,0.08,0.52,0.08c0.22,0,0.42-0.03,0.61-0.1c0.18-0.06,0.34-0.16,0.48-0.27
					c0.14-0.12,0.25-0.26,0.34-0.42s0.15-0.35,0.18-0.55l0.53-3.33h1.37l-0.01,0.06l-0.52,3.28c-0.05,0.33-0.17,0.63-0.34,0.91
					c-0.17,0.28-0.39,0.52-0.66,0.72c-0.27,0.2-0.58,0.36-0.94,0.47C68.79,90.42,68.4,90.48,67.98,90.48z M66.18,84.96l-0.5,3.23
					c-0.02,0.12-0.03,0.24-0.03,0.35c0,0.27,0.05,0.52,0.15,0.74s0.25,0.42,0.45,0.58s0.44,0.29,0.73,0.38s0.62,0.14,1,0.14
					c0.41,0,0.79-0.06,1.14-0.17c0.34-0.11,0.65-0.26,0.91-0.46c0.26-0.19,0.47-0.43,0.64-0.69c0.16-0.27,0.27-0.56,0.32-0.87
					l0.51-3.22h-1.15l-0.51,3.23c-0.03,0.21-0.1,0.41-0.19,0.59c-0.1,0.18-0.22,0.33-0.37,0.45c-0.15,0.13-0.32,0.22-0.52,0.29
					c-0.19,0.07-0.41,0.1-0.64,0.1c-0.21,0-0.39-0.03-0.55-0.08c-0.16-0.06-0.3-0.14-0.41-0.24s-0.2-0.23-0.25-0.37
					c-0.06-0.14-0.08-0.31-0.08-0.48c0-0.04,0-0.09,0.01-0.14c0-0.05,0.01-0.09,0.01-0.14l0.51-3.21L66.18,84.96L66.18,84.96z"/>
			</g>
			<g>
				<path class="st3" d="M71.87,90.36l0.87-5.46H75c0.39,0,0.72,0.03,1,0.09s0.5,0.14,0.68,0.25s0.31,0.24,0.39,0.39
					s0.13,0.32,0.13,0.51c0,0.16-0.03,0.31-0.08,0.45s-0.14,0.27-0.25,0.39s-0.26,0.23-0.43,0.32c-0.18,0.1-0.38,0.17-0.63,0.24
					c0.4,0.08,0.7,0.2,0.89,0.38c0.19,0.17,0.29,0.4,0.29,0.67c0,0.25-0.06,0.48-0.18,0.7c-0.12,0.22-0.29,0.4-0.52,0.56
					c-0.23,0.16-0.5,0.28-0.83,0.37c-0.33,0.09-0.69,0.13-1.11,0.13h-2.48V90.36z M73.51,87.96l-0.26,1.64h1.19
					c0.23,0,0.42-0.02,0.58-0.07s0.3-0.11,0.4-0.2c0.11-0.09,0.18-0.19,0.23-0.31c0.05-0.12,0.08-0.26,0.08-0.4
					c0-0.2-0.08-0.36-0.24-0.48c-0.16-0.12-0.43-0.18-0.8-0.18H73.51z M73.61,87.28h0.93c0.43,0,0.77-0.08,1-0.24
					c0.24-0.16,0.35-0.4,0.35-0.73c0-0.23-0.08-0.4-0.25-0.5s-0.43-0.16-0.78-0.16h-1L73.61,87.28z"/>
				<path class="st3" d="M74.34,90.42H71.8l0.01-0.06l0.87-5.5h2.3c0.39,0,0.73,0.03,1.01,0.09s0.52,0.15,0.7,0.26
					s0.32,0.25,0.41,0.41c0.09,0.16,0.13,0.34,0.13,0.54c0,0.16-0.03,0.32-0.08,0.47c-0.06,0.15-0.14,0.29-0.26,0.41
					s-0.27,0.24-0.45,0.34c-0.13,0.07-0.27,0.13-0.44,0.18c0.31,0.08,0.55,0.2,0.71,0.35c0.21,0.18,0.31,0.42,0.31,0.71
					c0,0.26-0.06,0.5-0.19,0.73c-0.12,0.22-0.3,0.42-0.54,0.58c-0.23,0.16-0.52,0.29-0.85,0.38C75.14,90.37,74.76,90.42,74.34,90.42
					z M71.93,90.31h2.41c0.41,0,0.77-0.04,1.09-0.13s0.59-0.21,0.81-0.36s0.39-0.33,0.5-0.54s0.17-0.43,0.17-0.67
					c0-0.26-0.09-0.46-0.27-0.63c-0.19-0.17-0.48-0.29-0.86-0.37l-0.23-0.05l0.23-0.06c0.24-0.06,0.44-0.14,0.62-0.23
					c0.17-0.09,0.31-0.2,0.42-0.31c0.11-0.12,0.19-0.24,0.24-0.38c0.05-0.13,0.08-0.28,0.08-0.43c0-0.18-0.04-0.34-0.12-0.49
					c-0.08-0.14-0.2-0.27-0.37-0.37c-0.17-0.1-0.39-0.19-0.66-0.24c-0.27-0.06-0.61-0.09-0.99-0.09h-2.21L71.93,90.31z M74.44,89.65
					h-1.26l0.01-0.06l0.27-1.69h1.23c0.38,0,0.66,0.06,0.83,0.19c0.18,0.13,0.27,0.3,0.27,0.52c0,0.15-0.03,0.29-0.08,0.42
					s-0.14,0.24-0.25,0.33c-0.11,0.09-0.25,0.16-0.42,0.21C74.87,89.63,74.67,89.65,74.44,89.65z M73.31,89.55h1.13
					c0.22,0,0.41-0.02,0.57-0.07c0.15-0.05,0.28-0.11,0.38-0.19s0.17-0.18,0.22-0.29c0.05-0.12,0.07-0.24,0.07-0.38
					c0-0.18-0.07-0.32-0.22-0.43s-0.41-0.17-0.77-0.17h-1.14L73.31,89.55z M74.55,87.34h-1l0.28-1.73h1.05
					c0.36,0,0.63,0.06,0.81,0.16c0.18,0.11,0.28,0.3,0.28,0.55c0,0.34-0.13,0.6-0.38,0.77C75.34,87.25,74.99,87.34,74.55,87.34z
					 M73.68,87.23h0.87c0.42,0,0.75-0.08,0.97-0.23s0.33-0.37,0.33-0.68c0-0.21-0.07-0.36-0.23-0.45c-0.16-0.1-0.41-0.15-0.75-0.15
					h-0.96L73.68,87.23z"/>
			</g>
			<g>
				<path class="st3" d="M83.38,90.36H82.4c-0.11,0-0.2-0.02-0.26-0.06c-0.06-0.04-0.11-0.09-0.12-0.16L81.73,89h-2.62l-0.65,1.14
					c-0.04,0.06-0.09,0.11-0.18,0.15c-0.08,0.05-0.17,0.07-0.27,0.07h-0.99l3.4-5.46h1.29L83.38,90.36z M79.5,88.31h2.05l-0.48-1.87
					c-0.03-0.09-0.05-0.19-0.08-0.29s-0.05-0.21-0.07-0.34c-0.06,0.13-0.12,0.24-0.18,0.35s-0.12,0.2-0.17,0.28L79.5,88.31z"/>
				<path class="st3" d="M83.46,90.42h-1.05c-0.12,0-0.22-0.02-0.29-0.07c-0.08-0.05-0.13-0.11-0.15-0.2l-0.28-1.1h-2.55l-0.64,1.11
					c-0.04,0.07-0.11,0.13-0.2,0.18s-0.19,0.07-0.3,0.07h-1.09l3.47-5.56h1.36l0.01,0.04L83.46,90.42z M79.08,88.95h2.7l0.3,1.18
					c0.01,0.05,0.04,0.1,0.1,0.13s0.13,0.05,0.23,0.05h0.9l-1.65-5.35h-1.22l-3.33,5.35h0.9c0.09,0,0.17-0.02,0.25-0.06
					c0.07-0.04,0.13-0.09,0.16-0.14L79.08,88.95z M81.62,88.36h-2.21l1.12-1.94c0.05-0.08,0.11-0.18,0.17-0.28s0.12-0.22,0.18-0.35
					l0.07-0.15l0.03,0.16c0.02,0.12,0.05,0.24,0.07,0.34c0.03,0.1,0.05,0.2,0.08,0.29L81.62,88.36z M79.59,88.26h1.89l-0.46-1.8
					c-0.03-0.09-0.05-0.19-0.08-0.29c-0.02-0.06-0.03-0.12-0.04-0.19c-0.04,0.07-0.08,0.14-0.11,0.21c-0.06,0.1-0.12,0.2-0.17,0.28
					L79.59,88.26z"/>
			</g>
			<g>
				<path class="st3" d="M88.69,84.91l-0.13,0.8h-1.93l-0.74,4.65h-1.26l0.73-4.65h-1.93l0.13-0.8H88.69z"/>
				<path class="st3" d="M85.94,90.42h-1.36l0.01-0.06l0.72-4.59h-1.93l0.14-0.91h5.23l-0.15,0.91h-1.93L85.94,90.42z M84.7,90.31
					h1.15l0.74-4.65h1.93l0.11-0.7h-5.01l-0.11,0.7h1.93l-0.01,0.06L84.7,90.31z"/>
			</g>
			<g>
				<path class="st3" d="M93.53,84.91l-0.13,0.78h-2.83l-0.24,1.55h2.22l-0.12,0.75h-2.22l-0.25,1.59h2.84l-0.13,0.78h-4.11
					l0.87-5.46h4.1V84.91z"/>
				<path class="st3" d="M92.72,90.42H88.5l0.01-0.06l0.87-5.5h4.21l-0.14,0.89h-2.83l-0.23,1.44h2.22l-0.14,0.86h-2.22l-0.24,1.48
					h2.84L92.72,90.42z M88.63,90.31h4l0.11-0.67H89.9l0.27-1.7h2.22l0.1-0.64h-2.22l0.01-0.06l0.25-1.6h2.83l0.11-0.67h-3.99
					L88.63,90.31z"/>
			</g>
			<g>
				<path class="st3" d="M96.64,89.59c0.2,0,0.37-0.01,0.52-0.04c0.15-0.02,0.28-0.05,0.38-0.09c0.11-0.04,0.2-0.08,0.28-0.12
					s0.15-0.08,0.2-0.12c0.06-0.04,0.11-0.07,0.16-0.09s0.09-0.04,0.14-0.04c0.04,0,0.07,0.01,0.1,0.02
					c0.03,0.01,0.05,0.03,0.06,0.04l0.44,0.43c-0.3,0.27-0.66,0.48-1.07,0.62c-0.41,0.14-0.89,0.22-1.42,0.22
					c-0.43,0-0.82-0.06-1.15-0.18c-0.34-0.12-0.62-0.28-0.86-0.5c-0.24-0.2-0.42-0.45-0.54-0.74s-0.18-0.61-0.18-0.95
					c0-0.31,0.04-0.61,0.13-0.89s0.21-0.54,0.37-0.78s0.36-0.45,0.58-0.64c0.23-0.19,0.48-0.35,0.75-0.48
					c0.28-0.13,0.57-0.24,0.89-0.31s0.65-0.11,1-0.11c0.26,0,0.49,0.02,0.7,0.05c0.21,0.04,0.4,0.09,0.57,0.15
					c0.17,0.07,0.33,0.14,0.46,0.24c0.14,0.09,0.26,0.19,0.37,0.31L99.1,86c-0.03,0.03-0.07,0.06-0.11,0.08
					c-0.04,0.02-0.1,0.03-0.16,0.03c-0.07,0-0.14-0.02-0.2-0.07s-0.15-0.09-0.25-0.15s-0.23-0.1-0.38-0.15
					c-0.16-0.05-0.36-0.07-0.62-0.07c-0.34,0-0.65,0.05-0.94,0.16s-0.54,0.26-0.75,0.46s-0.38,0.44-0.5,0.72s-0.18,0.6-0.18,0.95
					c0,0.25,0.04,0.48,0.12,0.68s0.2,0.37,0.34,0.51c0.15,0.14,0.32,0.25,0.52,0.32C96.18,89.56,96.4,89.59,96.64,89.59z"/>
				<path class="st3" d="M96.42,90.48c-0.44,0-0.83-0.06-1.17-0.18s-0.64-0.29-0.87-0.51c-0.24-0.22-0.42-0.48-0.55-0.77
					c-0.12-0.29-0.19-0.62-0.19-0.97c0-0.32,0.05-0.62,0.13-0.91c0.09-0.28,0.22-0.55,0.38-0.79c0.16-0.24,0.36-0.46,0.59-0.65
					c0.23-0.19,0.49-0.36,0.76-0.49c0.28-0.13,0.58-0.24,0.9-0.31s0.66-0.11,1.01-0.11c0.26,0,0.5,0.02,0.71,0.06
					s0.41,0.09,0.58,0.16c0.18,0.07,0.33,0.15,0.47,0.24s0.26,0.2,0.38,0.31l0.04,0.04l-0.48,0.45c-0.04,0.03-0.08,0.06-0.13,0.09
					c-0.11,0.06-0.28,0.06-0.42-0.04c-0.06-0.04-0.14-0.09-0.24-0.15c-0.1-0.05-0.22-0.1-0.37-0.14s-0.36-0.07-0.61-0.07
					c-0.33,0-0.64,0.05-0.92,0.16c-0.28,0.1-0.53,0.25-0.74,0.45c-0.21,0.19-0.37,0.43-0.49,0.7c-0.12,0.27-0.18,0.58-0.18,0.92
					c0,0.25,0.04,0.47,0.12,0.66s0.19,0.36,0.33,0.49s0.31,0.24,0.5,0.31s0.41,0.11,0.64,0.11c0.19,0,0.37-0.01,0.51-0.04
					c0.14-0.02,0.27-0.05,0.38-0.09c0.11-0.04,0.2-0.08,0.27-0.12s0.14-0.08,0.2-0.12s0.11-0.07,0.16-0.09
					c0.1-0.05,0.21-0.05,0.28-0.02c0.03,0.01,0.05,0.03,0.07,0.04L99,89.58l-0.04,0.04c-0.31,0.28-0.68,0.49-1.09,0.64
					C97.44,90.4,96.96,90.48,96.42,90.48z M97.43,84.9c-0.34,0-0.67,0.04-0.99,0.1c-0.31,0.07-0.61,0.17-0.88,0.3
					c-0.27,0.13-0.52,0.29-0.74,0.48c-0.22,0.18-0.42,0.4-0.57,0.63c-0.16,0.23-0.28,0.49-0.37,0.76c-0.09,0.27-0.13,0.57-0.13,0.88
					c0,0.33,0.06,0.65,0.18,0.93s0.29,0.53,0.52,0.73c0.23,0.21,0.51,0.37,0.84,0.49c0.33,0.12,0.71,0.18,1.13,0.18
					c0.53,0,1-0.07,1.4-0.21c0.38-0.13,0.72-0.33,1.01-0.58l-0.4-0.39c-0.01-0.01-0.03-0.02-0.05-0.03
					c-0.04-0.02-0.12-0.02-0.18,0.02c-0.04,0.02-0.09,0.05-0.15,0.09c-0.06,0.04-0.13,0.08-0.21,0.12s-0.18,0.08-0.29,0.12
					s-0.24,0.07-0.39,0.09s-0.33,0.04-0.53,0.04c-0.24,0-0.47-0.04-0.68-0.11c-0.21-0.08-0.39-0.19-0.54-0.33s-0.27-0.32-0.36-0.53
					c-0.09-0.21-0.13-0.44-0.13-0.7c0-0.36,0.06-0.68,0.19-0.97c0.12-0.29,0.3-0.53,0.52-0.74c0.22-0.2,0.48-0.36,0.77-0.47
					c0.29-0.11,0.62-0.16,0.96-0.16c0.26,0,0.47,0.02,0.64,0.07c0.16,0.05,0.29,0.1,0.4,0.15c0.1,0.06,0.18,0.11,0.25,0.15
					c0.11,0.07,0.24,0.07,0.31,0.03c0.04-0.02,0.07-0.04,0.1-0.07l0.4-0.37c-0.1-0.1-0.21-0.18-0.32-0.26
					c-0.13-0.09-0.28-0.17-0.45-0.23c-0.17-0.06-0.36-0.11-0.56-0.15C97.92,84.92,97.69,84.9,97.43,84.9z"/>
			</g>
			<g>
				<path class="st3" d="M105.64,85.89c-0.05,0.05-0.09,0.09-0.14,0.11c-0.05,0.02-0.1,0.04-0.17,0.04c-0.06,0-0.13-0.02-0.2-0.06
					s-0.15-0.08-0.24-0.13c-0.09-0.05-0.21-0.09-0.33-0.13c-0.13-0.04-0.28-0.06-0.46-0.06s-0.34,0.02-0.47,0.06
					c-0.14,0.04-0.25,0.1-0.34,0.17s-0.16,0.15-0.21,0.25c-0.05,0.1-0.07,0.2-0.07,0.31c0,0.12,0.04,0.21,0.11,0.29
					c0.08,0.08,0.18,0.14,0.3,0.2s0.26,0.11,0.42,0.15c0.16,0.05,0.32,0.09,0.48,0.14s0.33,0.11,0.48,0.17
					c0.16,0.07,0.3,0.15,0.42,0.24c0.12,0.1,0.22,0.21,0.3,0.35c0.08,0.13,0.11,0.3,0.11,0.49c0,0.27-0.06,0.52-0.18,0.75
					c-0.12,0.24-0.29,0.44-0.51,0.62s-0.49,0.32-0.81,0.42s-0.67,0.16-1.07,0.16c-0.2,0-0.41-0.02-0.6-0.05
					c-0.2-0.03-0.38-0.08-0.56-0.15c-0.17-0.06-0.34-0.14-0.49-0.23c-0.15-0.09-0.28-0.19-0.39-0.29l0.45-0.47
					c0.04-0.04,0.08-0.06,0.14-0.09c0.06-0.02,0.11-0.03,0.17-0.03c0.05,0,0.1,0.01,0.15,0.04s0.11,0.06,0.17,0.09
					c0.06,0.04,0.12,0.08,0.19,0.12s0.15,0.08,0.24,0.12s0.19,0.07,0.31,0.09c0.11,0.03,0.24,0.04,0.39,0.04
					c0.37,0,0.65-0.08,0.86-0.24c0.21-0.16,0.31-0.38,0.31-0.67c0-0.13-0.04-0.23-0.11-0.31c-0.07-0.08-0.17-0.15-0.3-0.2
					c-0.12-0.06-0.26-0.1-0.42-0.15c-0.16-0.04-0.32-0.09-0.48-0.13c-0.16-0.05-0.32-0.1-0.48-0.16c-0.16-0.06-0.3-0.14-0.42-0.24
					c-0.12-0.1-0.22-0.22-0.3-0.36c-0.07-0.14-0.11-0.31-0.11-0.52c0-0.23,0.06-0.46,0.17-0.68s0.27-0.41,0.48-0.57
					c0.21-0.16,0.46-0.3,0.76-0.4s0.63-0.15,1-0.15c0.19,0,0.38,0.02,0.55,0.05c0.18,0.03,0.34,0.07,0.49,0.13s0.29,0.12,0.42,0.2
					c0.13,0.08,0.24,0.16,0.33,0.25L105.64,85.89z"/>
				<path class="st3" d="M103.08,90.48c-0.21,0-0.41-0.02-0.61-0.05c-0.2-0.03-0.39-0.08-0.57-0.15c-0.18-0.06-0.34-0.14-0.5-0.23
					c-0.15-0.09-0.29-0.19-0.4-0.3l-0.04-0.04l0.48-0.51c0.04-0.04,0.09-0.07,0.15-0.1c0.12-0.05,0.25-0.05,0.36,0.01
					c0.05,0.03,0.11,0.06,0.17,0.09c0.06,0.04,0.13,0.08,0.2,0.12s0.14,0.08,0.23,0.12c0.09,0.04,0.19,0.07,0.3,0.09
					s0.24,0.04,0.38,0.04c0.35,0,0.63-0.08,0.83-0.23c0.2-0.15,0.29-0.36,0.29-0.63c0-0.11-0.03-0.2-0.1-0.27s-0.16-0.14-0.28-0.19
					c-0.12-0.05-0.26-0.1-0.41-0.14c-0.16-0.04-0.32-0.09-0.48-0.13c-0.16-0.05-0.33-0.1-0.48-0.16c-0.16-0.06-0.31-0.15-0.43-0.25
					c-0.13-0.1-0.23-0.23-0.31-0.37c-0.08-0.15-0.12-0.33-0.12-0.55c0-0.24,0.06-0.48,0.17-0.7c0.12-0.22,0.28-0.42,0.49-0.59
					s0.47-0.3,0.77-0.41c0.3-0.1,0.65-0.15,1.02-0.15c0.19,0,0.38,0.02,0.56,0.05c0.18,0.03,0.35,0.07,0.5,0.13s0.3,0.12,0.43,0.2
					c0.13,0.08,0.25,0.17,0.34,0.26l0.04,0.04l-0.41,0.45c-0.05,0.05-0.1,0.1-0.15,0.12c-0.11,0.06-0.27,0.06-0.42-0.03
					c-0.07-0.04-0.15-0.08-0.24-0.13c-0.09-0.05-0.2-0.09-0.32-0.13s-0.27-0.06-0.45-0.06c-0.17,0-0.33,0.02-0.46,0.06
					s-0.24,0.09-0.33,0.16c-0.09,0.06-0.15,0.14-0.19,0.23c-0.04,0.09-0.06,0.18-0.06,0.29c0,0.1,0.03,0.18,0.1,0.25
					s0.17,0.14,0.28,0.19c0.12,0.06,0.26,0.11,0.41,0.15c0.16,0.05,0.32,0.09,0.49,0.14s0.33,0.11,0.49,0.18
					c0.16,0.07,0.31,0.15,0.44,0.25c0.13,0.1,0.23,0.22,0.31,0.36c0.08,0.14,0.12,0.32,0.12,0.52c0,0.27-0.06,0.54-0.18,0.78
					s-0.3,0.46-0.52,0.64c-0.23,0.18-0.5,0.33-0.82,0.43C103.84,90.42,103.48,90.48,103.08,90.48z M101.11,89.7
					c0.1,0.09,0.21,0.17,0.34,0.25c0.15,0.09,0.31,0.16,0.48,0.22c0.17,0.06,0.36,0.11,0.55,0.14s0.39,0.05,0.59,0.05
					c0.39,0,0.74-0.05,1.05-0.15c0.31-0.1,0.57-0.24,0.79-0.41c0.21-0.17,0.38-0.37,0.5-0.6c0.11-0.23,0.17-0.47,0.17-0.73
					c0-0.18-0.04-0.34-0.11-0.46c-0.07-0.13-0.17-0.24-0.29-0.33c-0.12-0.09-0.26-0.17-0.41-0.23c-0.16-0.06-0.32-0.12-0.48-0.17
					c-0.16-0.05-0.32-0.1-0.48-0.14c-0.16-0.05-0.31-0.1-0.43-0.16c-0.13-0.06-0.23-0.13-0.31-0.21c-0.09-0.09-0.13-0.2-0.13-0.33
					c0-0.12,0.03-0.23,0.08-0.33s0.13-0.19,0.22-0.27c0.1-0.07,0.22-0.13,0.36-0.17s0.3-0.06,0.49-0.06c0.19,0,0.35,0.02,0.48,0.06
					c0.13,0.04,0.25,0.09,0.34,0.14c0.1,0.05,0.18,0.09,0.25,0.14c0.12,0.07,0.24,0.06,0.31,0.02c0.04-0.02,0.08-0.05,0.12-0.1l0,0
					l0.34-0.37c-0.08-0.08-0.18-0.15-0.29-0.21c-0.12-0.07-0.26-0.14-0.41-0.19s-0.31-0.1-0.48-0.13c-0.17-0.03-0.36-0.04-0.54-0.04
					c-0.37,0-0.7,0.05-0.99,0.15s-0.54,0.23-0.74,0.39c-0.2,0.16-0.36,0.35-0.47,0.55c-0.11,0.21-0.16,0.43-0.16,0.65
					c0,0.2,0.04,0.36,0.11,0.5c0.07,0.13,0.17,0.25,0.28,0.34c0.12,0.09,0.25,0.17,0.4,0.23c0.15,0.06,0.31,0.12,0.47,0.16
					c0.16,0.05,0.32,0.09,0.48,0.13s0.3,0.09,0.43,0.15c0.13,0.06,0.24,0.13,0.31,0.22c0.08,0.09,0.13,0.21,0.13,0.35
					c0,0.3-0.11,0.54-0.33,0.71s-0.52,0.25-0.89,0.25c-0.15,0-0.29-0.01-0.41-0.04c-0.11-0.03-0.22-0.06-0.32-0.09
					c-0.09-0.04-0.18-0.08-0.25-0.13c-0.07-0.04-0.13-0.08-0.19-0.12c-0.06-0.04-0.11-0.07-0.16-0.09c-0.09-0.05-0.18-0.04-0.27,0
					c-0.05,0.02-0.09,0.04-0.12,0.08L101.11,89.7z"/>
			</g>
			<g>
				<path class="st3" d="M107.87,88.21l-0.34,2.15h-1.26l0.86-5.46h2c0.41,0,0.75,0.03,1.04,0.1s0.53,0.16,0.71,0.28
					c0.18,0.12,0.32,0.26,0.41,0.43c0.09,0.17,0.13,0.35,0.13,0.55c0,0.21-0.04,0.41-0.11,0.59s-0.19,0.35-0.33,0.5
					s-0.32,0.28-0.53,0.4c-0.21,0.11-0.44,0.2-0.71,0.26c0.07,0.04,0.14,0.08,0.2,0.13c0.06,0.05,0.11,0.11,0.16,0.18l1.26,2.03
					h-1.13c-0.11,0-0.2-0.02-0.27-0.05c-0.07-0.03-0.13-0.08-0.16-0.15l-1.03-1.77c-0.04-0.07-0.09-0.11-0.14-0.14
					c-0.06-0.03-0.15-0.04-0.27-0.04h-0.49V88.21z M108.28,85.66l-0.3,1.85h0.73c0.25,0,0.47-0.03,0.65-0.08
					c0.18-0.06,0.33-0.13,0.45-0.23c0.12-0.1,0.21-0.22,0.26-0.35c0.06-0.13,0.09-0.28,0.09-0.43c0-0.24-0.09-0.42-0.28-0.55
					c-0.19-0.13-0.48-0.2-0.87-0.2L108.28,85.66L108.28,85.66z"/>
				<path class="st3" d="M111.47,90.42h-1.23c-0.11,0-0.21-0.02-0.29-0.06s-0.15-0.09-0.19-0.17l-1.03-1.77
					c-0.03-0.06-0.07-0.1-0.12-0.12c-0.05-0.02-0.13-0.04-0.24-0.04h-0.45l-0.34,2.15h-1.36l0.01-0.06l0.87-5.5h2.05
					c0.41,0,0.76,0.03,1.05,0.1s0.54,0.16,0.73,0.29c0.19,0.12,0.34,0.27,0.43,0.45c0.09,0.17,0.14,0.37,0.14,0.57
					c0,0.22-0.04,0.42-0.12,0.62c-0.08,0.19-0.19,0.37-0.34,0.52c-0.15,0.15-0.33,0.29-0.54,0.41c-0.18,0.1-0.37,0.17-0.59,0.24
					c0.03,0.02,0.06,0.04,0.09,0.07c0.07,0.05,0.12,0.12,0.17,0.19L111.47,90.42z M107.82,88.16h0.54c0.13,0,0.22,0.02,0.29,0.05
					c0.07,0.03,0.12,0.09,0.17,0.16l1.03,1.77c0.03,0.05,0.08,0.09,0.14,0.12c0.07,0.03,0.15,0.05,0.25,0.05h1.04l-1.2-1.95
					c-0.04-0.06-0.09-0.12-0.15-0.17c-0.06-0.05-0.12-0.09-0.19-0.12L109.59,88l0.15-0.04c0.26-0.06,0.49-0.15,0.69-0.26
					c0.2-0.11,0.37-0.24,0.51-0.39c0.14-0.14,0.24-0.31,0.32-0.49c0.07-0.18,0.11-0.37,0.11-0.57c0-0.19-0.04-0.36-0.13-0.52
					c-0.08-0.16-0.21-0.29-0.39-0.41s-0.41-0.21-0.69-0.27c-0.28-0.07-0.63-0.1-1.03-0.1h-1.95l-0.84,5.35h1.15L107.82,88.16z
					 M108.71,87.57h-0.79l0.31-1.96h0.79c0.4,0,0.71,0.07,0.9,0.21c0.2,0.14,0.3,0.34,0.3,0.6c0,0.16-0.03,0.31-0.09,0.45
					s-0.16,0.26-0.28,0.37c-0.12,0.1-0.28,0.19-0.47,0.24C109.19,87.54,108.97,87.57,108.71,87.57z M108.04,87.46h0.67
					c0.25,0,0.46-0.03,0.64-0.08s0.32-0.13,0.43-0.22c0.11-0.09,0.2-0.2,0.25-0.33c0.06-0.13,0.08-0.26,0.08-0.41
					c0-0.22-0.09-0.39-0.26-0.51c-0.18-0.13-0.46-0.19-0.84-0.19h-0.69L108.04,87.46z"/>
			</g>
			<g>
				<path class="st3" d="M113.51,89.55h2.56l-0.12,0.81h-3.82L113,84.9h1.26L113.51,89.55z"/>
				<path class="st3" d="M115.99,90.42h-3.93l0.01-0.06l0.87-5.5h1.37l-0.01,0.06l-0.73,4.58h2.56L115.99,90.42z M112.18,90.31h3.71
					l0.11-0.7h-2.56l0.01-0.06l0.73-4.58h-1.15L112.18,90.31z"/>
			</g>
		</g>
	</g>
	<g>
		<text transform="matrix(1 0 0 1 193.2542 70.8991)" class="st3 st103 st104">Mitre 1184 - Guyamallén, Mendoza</text>
		<text transform="matrix(1 0 0 1 172.1142 81.6991)" class="st3 st103 st104">Tel:</text>
		<text transform="matrix(1 0 0 1 187.4742 81.6991)" class="st3 st105 st104"> (261) 719-8290 - </text>
		<text transform="matrix(1 0 0 1 258.0942 81.6991)" class="st3 st103 st104">Mail:</text>
		<text transform="matrix(1 0 0 1 278.1242 81.6991)" class="st3 st105 st104"> info@bubatec.com</text>
		<text transform="matrix(1 0 0 1 183.4288 38.4101)" class="st106"><tspan x="0" y="0" class="st3 st107 st108">- V I G E N C I A  D E  L A  R T O -</tspan><tspan x="-21.23" y="16" class="st3 st105 st108">INICIO: ___________  /  FIN: ___________ (*)</tspan></text>
	</g>
</g>
<g>
	
		<linearGradient id="SVGID_00000128453976366132546700000017636604026379112374_" gradientUnits="userSpaceOnUse" x1="13.65" y1="723.5054" x2="581.51" y2="723.5054" gradientTransform="matrix(1 0 0 -1 0 840.8504)">
		<stop  offset="0" style="stop-color:#14356E"/>
		<stop  offset="0.0371" style="stop-color:#16366F"/>
		<stop  offset="0.6611" style="stop-color:#285286"/>
		<stop  offset="1" style="stop-color:#305E90"/>
	</linearGradient>
	
		<rect x="14.15" y="99.56" style="fill:none;stroke:url(#SVGID_00000128453976366132546700000017636604026379112374_);stroke-miterlimit:10;" width="566.86" height="35.57"/>
	<text transform="matrix(1 0 0 1 22.4478 120.0081)" class="st110 st105 st104">Patente: ____________  / Marca: ____________________ / Modelo: _________________  / Km: ___________</text>
</g>
<g>
	<g>
		<text transform="matrix(1 0 0 1 208.479 155.3585)" class="st110 st105 st111 st112">RESULTADOS</text>
	</g>
	
		<linearGradient id="SVGID_00000139980143936378905370000007317400672580398257_" gradientUnits="userSpaceOnUse" x1="13.65" y1="690.0354" x2="581.51" y2="690.0354" gradientTransform="matrix(1 0 0 -1 0 840.8504)">
		<stop  offset="0" style="stop-color:#14356E"/>
		<stop  offset="0.0371" style="stop-color:#16366F"/>
		<stop  offset="0.6611" style="stop-color:#285286"/>
		<stop  offset="1" style="stop-color:#305E90"/>
	</linearGradient>
	
		<rect x="14.15" y="142.67" style="fill:none;stroke:url(#SVGID_00000139980143936378905370000007317400672580398257_);stroke-miterlimit:10;" width="566.86" height="16.29"/>
</g>
<linearGradient id="SVGID_00000055682822259235889880000016653410857869606815_" gradientUnits="userSpaceOnUse" x1="731.5293" y1="232.2268" x2="880.5793" y2="232.2268" gradientTransform="matrix(-1 0 0 1 1297.1293 -18.7618)">
	<stop  offset="0" style="stop-color:#14356E"/>
	<stop  offset="0.0371" style="stop-color:#16366F;stop-opacity:0.9629"/>
	<stop  offset="0.6611" style="stop-color:#285286;stop-opacity:0.3389"/>
	<stop  offset="1" style="stop-color:#305E90;stop-opacity:0"/>
</linearGradient>
<polygon style="fill:url(#SVGID_00000055682822259235889880000016653410857869606815_);" points="416.55,219.94 565.6,219.94 
	565.6,206.99 416.55,206.99 "/>
<linearGradient id="SVGID_00000165929003334112744860000009163975291759831699_" gradientUnits="userSpaceOnUse" x1="731.5293" y1="394.0018" x2="880.5793" y2="394.0018" gradientTransform="matrix(-1 0 0 1 1297.1293 -18.7618)">
	<stop  offset="0" style="stop-color:#14356E"/>
	<stop  offset="0.0371" style="stop-color:#16366F;stop-opacity:0.9629"/>
	<stop  offset="0.6611" style="stop-color:#285286;stop-opacity:0.3389"/>
	<stop  offset="1" style="stop-color:#305E90;stop-opacity:0"/>
</linearGradient>
<polygon style="fill:url(#SVGID_00000165929003334112744860000009163975291759831699_);" points="416.55,381.72 565.6,381.72 
	565.6,368.76 416.55,368.76 "/>
<linearGradient id="SVGID_00000087381517664047519000000006457328089529350071_" gradientUnits="userSpaceOnUse" x1="731.5293" y1="439.0218" x2="880.5793" y2="439.0218" gradientTransform="matrix(-1 0 0 1 1297.1293 -18.7618)">
	<stop  offset="0" style="stop-color:#14356E"/>
	<stop  offset="0.0371" style="stop-color:#16366F;stop-opacity:0.9629"/>
	<stop  offset="0.6611" style="stop-color:#285286;stop-opacity:0.3389"/>
	<stop  offset="1" style="stop-color:#305E90;stop-opacity:0"/>
</linearGradient>
<polygon style="fill:url(#SVGID_00000087381517664047519000000006457328089529350071_);" points="416.55,426.74 565.6,426.74 
	565.6,413.78 416.55,413.78 "/>
<linearGradient id="SVGID_00000052825249112370969870000013399464595794859440_" gradientUnits="userSpaceOnUse" x1="19.14" y1="612.6804" x2="398.98" y2="612.6804" gradientTransform="matrix(1 0 0 -1 0 840.8504)">
	<stop  offset="0" style="stop-color:#14356E"/>
	<stop  offset="0.0395" style="stop-color:#183A72;stop-opacity:0.9605"/>
	<stop  offset="0.1877" style="stop-color:#21497E;stop-opacity:0.8123"/>
	<stop  offset="0.3609" style="stop-color:#2A5588;stop-opacity:0.6391"/>
	<stop  offset="0.5805" style="stop-color:#2F5C8E;stop-opacity:0.4195"/>
	<stop  offset="1" style="stop-color:#305E90;stop-opacity:0"/>
</linearGradient>
<rect x="19.14" y="221.69" style="fill:url(#SVGID_00000052825249112370969870000013399464595794859440_);" width="379.84" height="12.96"/>
<linearGradient id="SVGID_00000077318396727772625380000013130285271062776511_" gradientUnits="userSpaceOnUse" x1="37.26" y1="607.1404" x2="188.54" y2="607.1404" gradientTransform="matrix(1 0 0 -1 0 840.8504)">
	<stop  offset="0" style="stop-color:#14356E"/>
	<stop  offset="0.0371" style="stop-color:#16366F"/>
	<stop  offset="0.6611" style="stop-color:#285286"/>
	<stop  offset="1" style="stop-color:#305E90"/>
</linearGradient>
<line style="fill:none;stroke:url(#SVGID_00000077318396727772625380000013130285271062776511_);stroke-width:0.75;stroke-miterlimit:10;" x1="188.54" y1="233.71" x2="37.26" y2="233.71"/>
<text transform="matrix(1 0 0 1 119.1973 230.4021)" class="st105 st119">EJE DELANTERO</text>
<linearGradient id="SVGID_00000168081746506835384370000009483872216355763092_" gradientUnits="userSpaceOnUse" x1="706.952" y1="160.9318" x2="883.382" y2="160.9318" gradientTransform="matrix(-1 0 0 1 1106.2521 67.2382)">
	<stop  offset="0" style="stop-color:#14356E"/>
	<stop  offset="0.1636" style="stop-color:#1C4178;stop-opacity:0.8364"/>
	<stop  offset="0.4278" style="stop-color:#275085;stop-opacity:0.5722"/>
	<stop  offset="0.7021" style="stop-color:#2E5A8D;stop-opacity:0.2979"/>
	<stop  offset="1" style="stop-color:#305E90;stop-opacity:0"/>
</linearGradient>
<polygon style="fill:url(#SVGID_00000168081746506835384370000009483872216355763092_);" points="222.87,234.65 399.3,234.65 
	399.3,221.69 222.87,221.69 "/>
<linearGradient id="SVGID_00000094600432884514050930000012231119476501297836_" gradientUnits="userSpaceOnUse" x1="19.14" y1="482.7004" x2="398.98" y2="482.7004" gradientTransform="matrix(1 0 0 -1 0 840.8504)">
	<stop  offset="0" style="stop-color:#14356E"/>
	<stop  offset="0.0395" style="stop-color:#183A72;stop-opacity:0.9605"/>
	<stop  offset="0.1877" style="stop-color:#21497E;stop-opacity:0.8123"/>
	<stop  offset="0.3609" style="stop-color:#2A5588;stop-opacity:0.6391"/>
	<stop  offset="0.5805" style="stop-color:#2F5C8E;stop-opacity:0.4195"/>
	<stop  offset="1" style="stop-color:#305E90;stop-opacity:0"/>
</linearGradient>
<rect x="19.14" y="351.67" style="fill:url(#SVGID_00000094600432884514050930000012231119476501297836_);" width="379.84" height="12.96"/>
<linearGradient id="SVGID_00000029759891223409414480000015493410570978413711_" gradientUnits="userSpaceOnUse" x1="706.952" y1="290.9118" x2="883.382" y2="290.9118" gradientTransform="matrix(-1 0 0 1 1106.2521 67.2382)">
	<stop  offset="0" style="stop-color:#14356E"/>
	<stop  offset="0.1636" style="stop-color:#1C4178;stop-opacity:0.8364"/>
	<stop  offset="0.4278" style="stop-color:#275085;stop-opacity:0.5722"/>
	<stop  offset="0.7021" style="stop-color:#2E5A8D;stop-opacity:0.2979"/>
	<stop  offset="1" style="stop-color:#305E90;stop-opacity:0"/>
</linearGradient>
<polygon style="fill:url(#SVGID_00000029759891223409414480000015493410570978413711_);" points="222.87,364.63 399.3,364.63 
	399.3,351.67 222.87,351.67 "/>
<linearGradient id="SVGID_00000169521711311928280590000017135244342741405329_" gradientUnits="userSpaceOnUse" x1="37.26" y1="476.7004" x2="188.54" y2="476.7004" gradientTransform="matrix(1 0 0 -1 0 840.8504)">
	<stop  offset="0" style="stop-color:#14356E"/>
	<stop  offset="0.0371" style="stop-color:#16366F"/>
	<stop  offset="0.6611" style="stop-color:#285286"/>
	<stop  offset="1" style="stop-color:#305E90"/>
</linearGradient>
<line style="fill:none;stroke:url(#SVGID_00000169521711311928280590000017135244342741405329_);stroke-width:0.75;stroke-miterlimit:10;" x1="188.54" y1="364.15" x2="37.26" y2="364.15"/>
<text transform="matrix(1 0 0 1 129.9191 360.8405)" class="st105 st119">EJE TRASERO</text>
<linearGradient id="SVGID_00000116945637481661204590000012655465466630974854_" gradientUnits="userSpaceOnUse" x1="187.915" y1="630.7129" x2="315.125" y2="630.7129" gradientTransform="matrix(1 0 0 -1 0 840.8504)">
	<stop  offset="0" style="stop-color:#14356E"/>
	<stop  offset="0.0371" style="stop-color:#16366F"/>
	<stop  offset="0.6611" style="stop-color:#285286"/>
	<stop  offset="1" style="stop-color:#305E90"/>
</linearGradient>
<polyline style="fill:none;stroke:url(#SVGID_00000116945637481661204590000012655465466630974854_);stroke-width:0.75;stroke-miterlimit:10;" points="
	188.29,219.78 188.29,200.87 314.75,200.87 314.75,219.78 "/>
<text transform="matrix(1 0 0 1 156.0597 194.757)" class="st105 st119">ALINEACIÓN DELANTERA (m/km) : _________</text>
<path class="st15" d="M330.7,182.9h-6.85c-3.46,0-6.28,2.83-6.28,6.28l0,0c0,3.46,2.83,6.28,6.28,6.28h6.85
	c3.46,0,6.28-2.83,6.28-6.28l0,0C336.99,185.72,334.16,182.9,330.7,182.9z"/>
<g>
	<text transform="matrix(1 0 0 1 36.8926 259.1965)" class="st105 st119">Rend. suspensión [%]</text>
	<text transform="matrix(1 0 0 1 156.6808 262.9997)" class="st105 st119">_______</text>
	<text transform="matrix(1 0 0 1 322.5061 262.9034)" class="st105 st119">_______</text>
	<path class="st15" d="M146.92,250.75h-6.85c-3.46,0-6.28,2.83-6.28,6.28l0,0c0,3.46,2.83,6.28,6.28,6.28h6.85
		c3.46,0,6.28-2.83,6.28-6.28l0,0C153.21,253.58,150.38,250.75,146.92,250.75z"/>
	<path class="st15" d="M364.28,250.75h-6.85c-3.46,0-6.28,2.83-6.28,6.28l0,0c0,3.46,2.83,6.28,6.28,6.28h6.85
		c3.46,0,6.28-2.83,6.28-6.28l0,0C370.57,253.58,367.74,250.75,364.28,250.75z"/>
</g>
<g>
	<text transform="matrix(1 0 0 1 36.8926 270.9734)" class="st105 st119">Frenos:</text>
	<text transform="matrix(1 0 0 1 40.7764 283.7512)" class="st105 st119">Rendimiento [%]</text>
	<text transform="matrix(1 0 0 1 40.7764 311.259)" class="st105 st119">Fuerza de frenado [kN]</text>
	<text transform="matrix(1 0 0 1 40.7764 325.7214)" class="st105 st119">Resistencia [kN]</text>
	<text transform="matrix(1 0 0 1 40.7764 340.1833)" class="st105 st119">Ovalidad [%]</text>
	<line class="st15" x1="36.89" y1="272.73" x2="68.22" y2="272.73"/>
	<text transform="matrix(1 0 0 1 156.6808 289.5539)" class="st105 st119">_______</text>
	<text transform="matrix(1 0 0 1 156.6808 317.0622)" class="st105 st119">_______</text>
	<text transform="matrix(1 0 0 1 156.6808 331.5241)" class="st105 st119">_______</text>
	<text transform="matrix(1 0 0 1 156.6808 345.9861)" class="st105 st119">_______</text>
	<text transform="matrix(1 0 0 1 322.9646 317.68)" class="st105 st119">_______</text>
	<text transform="matrix(1 0 0 1 322.9346 331.5244)" class="st105 st119">_______</text>
	<text transform="matrix(1 0 0 1 322.9346 345.4146)" class="st105 st119">_______</text>
	<path class="st15" d="M146.92,277.12h-6.85c-3.46,0-6.28,2.83-6.28,6.28l0,0c0,3.46,2.83,6.28,6.28,6.28h6.85
		c3.46,0,6.28-2.83,6.28-6.28l0,0C153.21,279.95,150.38,277.12,146.92,277.12z"/>
	<text transform="matrix(1 0 0 1 40.7764 297.5479)" class="st105 st119">Diferencia [%]</text>
	<text transform="matrix(1 0 0 1 156.6808 303.3507)" class="st105 st119">_______</text>
	<path class="st15" d="M146.92,290.92h-6.85c-3.46,0-6.28,2.83-6.28,6.28l0,0c0,3.46,2.83,6.28,6.28,6.28h6.85
		c3.46,0,6.28-2.83,6.28-6.28l0,0C153.21,293.74,150.38,290.92,146.92,290.92z"/>
	<path class="st15" d="M146.92,305.12h-6.85c-3.46,0-6.28,2.83-6.28,6.28l0,0c0,3.46,2.83,6.28,6.28,6.28h6.85
		c3.46,0,6.28-2.83,6.28-6.28l0,0C153.21,307.94,150.38,305.12,146.92,305.12z"/>
	<path class="st15" d="M146.92,319.18h-6.85c-3.46,0-6.28,2.83-6.28,6.28l0,0c0,3.46,2.83,6.28,6.28,6.28h6.85
		c3.46,0,6.28-2.83,6.28-6.28l0,0C153.21,322,150.38,319.18,146.92,319.18z"/>
	<path class="st15" d="M146.92,333.24h-6.85c-3.46,0-6.28,2.83-6.28,6.28l0,0c0,3.46,2.83,6.28,6.28,6.28h6.85
		c3.46,0,6.28-2.83,6.28-6.28l0,0C153.21,336.07,150.38,333.24,146.92,333.24z"/>
	<path class="st15" d="M364.28,305.12h-6.85c-3.46,0-6.28,2.83-6.28,6.28l0,0c0,3.46,2.83,6.28,6.28,6.28h6.85
		c3.46,0,6.28-2.83,6.28-6.28l0,0C370.57,307.94,367.74,305.12,364.28,305.12z"/>
	<path class="st15" d="M364.28,319.18h-6.85c-3.46,0-6.28,2.83-6.28,6.28l0,0c0,3.46,2.83,6.28,6.28,6.28h6.85
		c3.46,0,6.28-2.83,6.28-6.28l0,0C370.57,322,367.74,319.18,364.28,319.18z"/>
	<path class="st15" d="M364.28,333.24h-6.85c-3.46,0-6.28,2.83-6.28,6.28l0,0c0,3.46,2.83,6.28,6.28,6.28h6.85
		c3.46,0,6.28-2.83,6.28-6.28l0,0C370.57,336.07,367.74,333.24,364.28,333.24z"/>
</g>
<g>
	<text transform="matrix(1 0 0 1 322.9645 394.068)" class="st105 st119">_______</text>
	<g>
		<text transform="matrix(1 0 0 1 36.8926 390.2702)" class="st105 st119">Rend. suspensión [%]</text>
		<text transform="matrix(1 0 0 1 156.6808 394.068)" class="st105 st119">_______</text>
		<path class="st15" d="M146.92,381.5h-6.85c-3.46,0-6.28,2.83-6.28,6.28l0,0c0,3.46,2.83,6.28,6.28,6.28h6.85
			c3.46,0,6.28-2.83,6.28-6.28l0,0C153.21,384.33,150.38,381.5,146.92,381.5z"/>
	</g>
	<path class="st15" d="M364.28,381.5h-6.85c-3.46,0-6.28,2.83-6.28,6.28l0,0c0,3.46,2.83,6.28,6.28,6.28h6.85
		c3.46,0,6.28-2.83,6.28-6.28l0,0C370.57,384.33,367.74,381.5,364.28,381.5z"/>
</g>
<g>
	<text transform="matrix(1 0 0 1 421.3517 216.4597)" class="st105 st119">Luxometro [Kcd]</text>
</g>
<linearGradient id="SVGID_00000001641678722859880850000014351374017136562589_" gradientUnits="userSpaceOnUse" x1="416.9" y1="621.0404" x2="565.6" y2="621.0404" gradientTransform="matrix(1 0 0 -1 0 840.8504)">
	<stop  offset="0" style="stop-color:#14356E"/>
	<stop  offset="0.0371" style="stop-color:#16366F"/>
	<stop  offset="0.6611" style="stop-color:#285286"/>
	<stop  offset="1" style="stop-color:#305E90"/>
</linearGradient>
<line style="fill:none;stroke:url(#SVGID_00000001641678722859880850000014351374017136562589_);stroke-width:0.75;stroke-miterlimit:10;" x1="416.9" y1="219.81" x2="565.6" y2="219.81"/>
<g>
	<g>
		<text transform="matrix(1 0 0 1 416.6534 229.5786)" class="st105 st119">Intensidad Lumínica</text>
	</g>
	
		<linearGradient id="SVGID_00000018206852624284770670000010998112868278935221_" gradientUnits="userSpaceOnUse" x1="416.52" y1="608.8704" x2="565.6" y2="608.8704" gradientTransform="matrix(1 0 0 -1 0 840.8504)">
		<stop  offset="0" style="stop-color:#14356E"/>
		<stop  offset="0.0371" style="stop-color:#16366F"/>
		<stop  offset="0.6611" style="stop-color:#285286"/>
		<stop  offset="1" style="stop-color:#305E90"/>
	</linearGradient>
	
		<line style="fill:none;stroke:url(#SVGID_00000018206852624284770670000010998112868278935221_);stroke-width:0.75;stroke-miterlimit:10;" x1="416.52" y1="231.98" x2="565.6" y2="231.98"/>
</g>
<g>
	<g>
		<text transform="matrix(1 0 0 1 418.9904 422.2248)" class="st105 st119">Gases</text>
	</g>
	
		<linearGradient id="SVGID_00000039115802819676154270000002048038696988929708_" gradientUnits="userSpaceOnUse" x1="416.9" y1="414.3404" x2="565.6" y2="414.3404" gradientTransform="matrix(1 0 0 -1 0 840.8504)">
		<stop  offset="0" style="stop-color:#14356E"/>
		<stop  offset="0.0371" style="stop-color:#16366F"/>
		<stop  offset="0.6611" style="stop-color:#285286"/>
		<stop  offset="1" style="stop-color:#305E90"/>
	</linearGradient>
	
		<line style="fill:none;stroke:url(#SVGID_00000039115802819676154270000002048038696988929708_);stroke-width:0.75;stroke-miterlimit:10;" x1="416.9" y1="426.51" x2="565.6" y2="426.51"/>
</g>
<g>
	<g>
		
			<rect id="SVGID_00000104684664240796483760000005912228902419422642_" x="420.4" y="14.14" class="st3" width="161.48" height="121.11"/>
	</g>
	<g>
		
			<rect id="SVGID_00000044175837391573219250000009865205065448245438_" x="420.4" y="14.14" class="st19" width="161.48" height="121.11"/>
	</g>
</g>
<g>
	<g>
		<text transform="matrix(1 0 0 1 420.3566 377.2082)" class="st105 st119">Sonómetro</text>
	</g>
	
		<linearGradient id="SVGID_00000128443112700846536690000016776979121374479511_" gradientUnits="userSpaceOnUse" x1="416.9" y1="458.2904" x2="565.6" y2="458.2904" gradientTransform="matrix(1 0 0 -1 0 840.8504)">
		<stop  offset="0" style="stop-color:#14356E"/>
		<stop  offset="0.0371" style="stop-color:#16366F"/>
		<stop  offset="0.6611" style="stop-color:#285286"/>
		<stop  offset="1" style="stop-color:#305E90"/>
	</linearGradient>
	
		<line style="fill:none;stroke:url(#SVGID_00000128443112700846536690000016776979121374479511_);stroke-width:0.75;stroke-miterlimit:10;" x1="416.9" y1="382.56" x2="565.6" y2="382.56"/>
</g>
<linearGradient id="SVGID_00000031903781974120175300000005248243767560919479_" gradientUnits="userSpaceOnUse" x1="411.465" y1="461.2354" x2="574.255" y2="461.2354" gradientTransform="matrix(1 0 0 -1 0 840.8504)">
	<stop  offset="0" style="stop-color:#14356E"/>
	<stop  offset="0.0371" style="stop-color:#16366F"/>
	<stop  offset="0.6611" style="stop-color:#285286"/>
	<stop  offset="1" style="stop-color:#305E90"/>
</linearGradient>
<rect x="411.84" y="203.35" style="fill:none;stroke:url(#SVGID_00000031903781974120175300000005248243767560919479_);stroke-width:0.75;stroke-miterlimit:10;" width="162.04" height="352.53"/>
<g>
	
		<linearGradient id="SVGID_00000141446364577386655160000015514464923251657623_" gradientUnits="userSpaceOnUse" x1="13.895" y1="667.3304" x2="581.565" y2="667.3304" gradientTransform="matrix(1 0 0 -1 0 840.8504)">
		<stop  offset="0" style="stop-color:#14356E"/>
		<stop  offset="0.0371" style="stop-color:#16366F"/>
		<stop  offset="0.6611" style="stop-color:#285286"/>
		<stop  offset="1" style="stop-color:#305E90"/>
	</linearGradient>
	
		<rect x="14.27" y="165.59" style="fill:none;stroke:url(#SVGID_00000141446364577386655160000015514464923251657623_);stroke-width:0.75;stroke-miterlimit:10;" width="566.92" height="15.86"/>
	<text transform="matrix(1 0 0 1 149.1609 175.7358)" class="st110 st103 st131">(A)</text>
	<text transform="matrix(1 0 0 1 160.1709 175.7358)" class="st110 st105 st131"> Apto - </text>
	<text transform="matrix(1 0 0 1 185.2009 175.7358)" class="st110 st103 st131">(L)</text>
	<text transform="matrix(1 0 0 1 195.1609 175.7358)" class="st110 st105 st131"> Defecto </text>
	<text transform="matrix(1 0 0 1 226.9909 175.7358)" class="st110 st103 st131">Leve</text>
	<text transform="matrix(1 0 0 1 244.0109 175.7358)" class="st110 st105 st131"> - </text>
	<text transform="matrix(1 0 0 1 250.1809 175.7358)" class="st110 st103 st131">(M)</text>
	<text transform="matrix(1 0 0 1 262.8209 175.7358)" class="st110 st105 st131"> Defecto </text>
	<text transform="matrix(1 0 0 1 294.6409 175.7358)" class="st110 st103 st131">Moderado</text>
	<text transform="matrix(1 0 0 1 331.2409 175.7358)" class="st110 st105 st131"> - </text>
	<text transform="matrix(1 0 0 1 337.4109 175.7358)" class="st110 st103 st131">(G)</text>
	<text transform="matrix(1 0 0 1 348.4909 175.7358)" class="st110 st105 st131"> Defecto </text>
	<text transform="matrix(1 0 0 1 380.3109 175.7358)" class="st110 st103 st131">Grave</text>
	<text transform="matrix(1 0 0 1 401.3409 175.7358)" class="st110 st105 st131"> (rechazado)</text>
</g>
<text transform="matrix(1 0 0 1 474.7193 74.6969)" class="st105 st132">foto del auto</text>
<g>
	<text transform="matrix(0 -1 1 0 25.7249 321.8865)" class="st105 st119">IZQUIERDO</text>
</g>
<g>
	<text transform="matrix(0 1 -1 0 389.9102 274.5518)" class="st105 st119">DERECHO</text>
</g>
<g>
	<g>
		
			<linearGradient id="SVGID_00000120549401380242226560000016961442646358938550_" gradientUnits="userSpaceOnUse" x1="512.2932" y1="-265.9099" x2="639.5032" y2="-265.9099" gradientTransform="matrix(-1 0 0 1 827.4182 795.2924)">
			<stop  offset="0" style="stop-color:#14356E"/>
			<stop  offset="0.0371" style="stop-color:#16366F"/>
			<stop  offset="0.6611" style="stop-color:#285286"/>
			<stop  offset="1" style="stop-color:#305E90"/>
		</linearGradient>
		
			<polyline style="fill:none;stroke:url(#SVGID_00000120549401380242226560000016961442646358938550_);stroke-width:0.75;stroke-miterlimit:10;" points="
			314.75,519.74 314.75,538.65 188.29,538.65 188.29,519.74 		"/>
		<text transform="matrix(1 0 0 1 160.6085 555.6453)" class="st105 st119">ALINEACIÓN TRASERA [m/km] : _________</text>
		<path class="st15" d="M324.05,543.31h-6.85c-3.46,0-6.28,2.83-6.28,6.28l0,0c0,3.46,2.83,6.28,6.28,6.28h6.85
			c3.46,0,6.28-2.83,6.28-6.28l0,0C330.33,546.14,327.5,543.31,324.05,543.31z"/>
		<g>
			<text transform="matrix(1 0 0 1 36.8926 401.8464)" class="st105 st119">Frenos:</text>
			<line class="st15" x1="36.89" y1="403.6" x2="68.22" y2="403.6"/>
		</g>
		<g>
			<text transform="matrix(1 0 0 1 36.8926 484.6916)" class="st105 st119">Freno de mano:</text>
			<line class="st15" x1="35.96" y1="486.45" x2="96.2" y2="486.45"/>
		</g>
		<text transform="matrix(1 0 0 1 39.7764 497.9133)" class="st105 st119">Rendimiento [%]</text>
		<text transform="matrix(1 0 0 1 156.6808 500.9133)" class="st105 st119">_______</text>
		<path class="st15" d="M146.92,489.15h-6.85c-3.46,0-6.28,2.83-6.28,6.28l0,0c0,3.46,2.83,6.28,6.28,6.28h6.85
			c3.46,0,6.28-2.83,6.28-6.28l0,0C153.21,491.97,150.38,489.15,146.92,489.15z"/>
		<text transform="matrix(1 0 0 1 39.7764 512.8452)" class="st105 st119">Diferencia [%]</text>
		<text transform="matrix(1 0 0 1 156.6808 515.8452)" class="st105 st119">_______</text>
		<path class="st15" d="M146.92,504.08h-6.85c-3.46,0-6.28,2.83-6.28,6.28l0,0c0,3.46,2.83,6.28,6.28,6.28h6.85
			c3.46,0,6.28-2.83,6.28-6.28l0,0C153.21,506.91,150.38,504.08,146.92,504.08z"/>
		<text transform="matrix(1 0 0 1 323.3752 531.7719)" class="st105 st119">_______</text>
		<g>
			<text transform="matrix(1 0 0 1 39.7764 528.2189)" class="st105 st119">Fuerza de frenado [kN]</text>
			<text transform="matrix(1 0 0 1 156.6808 531.2189)" class="st105 st119">_______</text>
			<path class="st15" d="M146.92,519.45h-6.85c-3.46,0-6.28,2.83-6.28,6.28l0,0c0,3.46,2.83,6.28,6.28,6.28h6.85
				c3.46,0,6.28-2.83,6.28-6.28l0,0C153.21,522.28,150.38,519.45,146.92,519.45z"/>
		</g>
		<path class="st15" d="M364.28,519.45h-6.85c-3.46,0-6.28,2.83-6.28,6.28l0,0c0,3.46,2.83,6.28,6.28,6.28h6.85
			c3.46,0,6.28-2.83,6.28-6.28l0,0C370.57,522.28,367.74,519.45,364.28,519.45z"/>
		<text transform="matrix(1 0 0 1 40.7764 415.6472)" class="st105 st119">Rendimiento [%]</text>
		<text transform="matrix(1 0 0 1 156.7399 418.9686)" class="st105 st119">_______</text>
		<path class="st15" d="M146.92,406.88h-6.85c-3.46,0-6.28,2.83-6.28,6.28l0,0c0,3.46,2.83,6.28,6.28,6.28h6.85
			c3.46,0,6.28-2.83,6.28-6.28l0,0C153.21,409.71,150.38,406.88,146.92,406.88z"/>
		<text transform="matrix(1 0 0 1 40.7764 429.3307)" class="st105 st119">Diferencia [%]</text>
		<text transform="matrix(1 0 0 1 156.7251 432.6521)" class="st105 st119">_______</text>
		<path class="st15" d="M146.92,420.56h-6.85c-3.46,0-6.28,2.83-6.28,6.28l0,0c0,3.46,2.83,6.28,6.28,6.28h6.85
			c3.46,0,6.28-2.83,6.28-6.28l0,0C153.21,423.39,150.38,420.56,146.92,420.56z"/>
		<text transform="matrix(1 0 0 1 322.9644 447.1217)" class="st105 st119">_______</text>
		<g>
			<text transform="matrix(1 0 0 1 40.7764 443.5691)" class="st105 st119">Fuerza de frenado [kN]</text>
			<text transform="matrix(1 0 0 1 156.7103 447.122)" class="st105 st119">_______</text>
			<path class="st15" d="M146.92,434.8h-6.85c-3.46,0-6.28,2.83-6.28,6.28l0,0c0,3.46,2.83,6.28,6.28,6.28h6.85
				c3.46,0,6.28-2.83,6.28-6.28l0,0C153.21,437.63,150.38,434.8,146.92,434.8z"/>
		</g>
		<path class="st15" d="M364.28,434.8h-6.85c-3.46,0-6.28,2.83-6.28,6.28l0,0c0,3.46,2.83,6.28,6.28,6.28h6.85
			c3.46,0,6.28-2.83,6.28-6.28l0,0C370.57,437.63,367.74,434.8,364.28,434.8z"/>
		<text transform="matrix(1 0 0 1 40.7764 457.4909)" class="st105 st119">Resistencia [kN]</text>
		<text transform="matrix(1 0 0 1 156.6808 460.4909)" class="st105 st119">_______</text>
		<text transform="matrix(1 0 0 1 322.9496 460.99)" class="st105 st119">_______</text>
		<path class="st15" d="M146.92,448.72h-6.85c-3.46,0-6.28,2.83-6.28,6.28l0,0c0,3.46,2.83,6.28,6.28,6.28h6.85
			c3.46,0,6.28-2.83,6.28-6.28l0,0C153.21,451.55,150.38,448.72,146.92,448.72z"/>
		<path class="st15" d="M364.28,448.72h-6.85c-3.46,0-6.28,2.83-6.28,6.28l0,0c0,3.46,2.83,6.28,6.28,6.28h6.85
			c3.46,0,6.28-2.83,6.28-6.28l0,0C370.57,451.55,367.74,448.72,364.28,448.72z"/>
		<text transform="matrix(1 0 0 1 322.9495 474.9123)" class="st105 st119">_______</text>
		<g>
			<text transform="matrix(1 0 0 1 40.7764 471.4123)" class="st105 st119">Ovalidad [%]</text>
			<text transform="matrix(1 0 0 1 156.6956 474.4125)" class="st105 st119">_______</text>
			<path class="st15" d="M146.92,462.65h-6.85c-3.46,0-6.28,2.83-6.28,6.28l0,0c0,3.46,2.83,6.28,6.28,6.28h6.85
				c3.46,0,6.28-2.83,6.28-6.28l0,0C153.21,465.47,150.38,462.65,146.92,462.65z"/>
		</g>
		<path class="st15" d="M364.28,462.65h-6.85c-3.46,0-6.28,2.83-6.28,6.28l0,0c0,3.46,2.83,6.28,6.28,6.28h6.85
			c3.46,0,6.28-2.83,6.28-6.28l0,0C370.57,465.47,367.74,462.65,364.28,462.65z"/>
	</g>
	<g>
		<text transform="matrix(0 -1 1 0 25.7249 464.2957)" class="st105 st119">IZQUIERDO</text>
	</g>
	<g>
		<text transform="matrix(0 1 -1 0 389.9102 418.4549)" class="st105 st119">DERECHO</text>
	</g>
</g>
<g>
	<text transform="matrix(1 0 0 1 36.3024 244.8703)" class="st105 st119">Peso [kg]</text>
	<text transform="matrix(1 0 0 1 156.0906 244.8703)" class="st105 st119">_______</text>
	<text transform="matrix(1 0 0 1 322.9344 244.8703)" class="st105 st119">_______</text>
</g>
<g>
	<text transform="matrix(1 0 0 1 36.3024 375.3154)" class="st105 st119">Peso [kg]</text>
	<text transform="matrix(1 0 0 1 156.0906 375.3154)" class="st105 st119">_______</text>
	<text transform="matrix(1 0 0 1 323.3602 375.3154)" class="st105 st119">_______</text>
</g>
<g>
	<g>
		<text transform="matrix(1 0 0 1 480.5482 243.5786)" class="st105 st119">IZQUIERDA</text>
	</g>
	<g>
		<text transform="matrix(1 0 0 1 532.7932 243.5786)" class="st105 st119">DERECHA</text>
	</g>
	<g>
		<g>
			<text transform="matrix(1 0 0 1 425.6578 259.7925)" class="st105 st119">BAJA</text>
		</g>
	</g>
	<g>
		<g>
			<path class="st15" d="M502.84,248.43h-6.85c-3.46,0-6.28,2.83-6.28,6.28l0,0c0,3.46,2.83,6.28,6.28,6.28h6.85
				c3.46,0,6.28-2.83,6.28-6.28l0,0C509.13,251.26,506.3,248.43,502.84,248.43z"/>
		</g>
		<text transform="matrix(1 0 0 1 463.9839 259.7923)" class="st105 st119">_______</text>
	</g>
	<g>
		<g>
			<path class="st15" d="M554.14,248.43h-6.85c-3.46,0-6.28,2.83-6.28,6.28l0,0c0,3.46,2.83,6.28,6.28,6.28h6.85
				c3.46,0,6.28-2.83,6.28-6.28l0,0C560.42,251.26,557.6,248.43,554.14,248.43z"/>
		</g>
		<text transform="matrix(1 0 0 1 515.2823 259.7923)" class="st105 st119">_______</text>
	</g>
	<g>
		<g>
			<text transform="matrix(1 0 0 1 425.8053 276.0806)" class="st105 st119">ALTA</text>
		</g>
	</g>
	<g>
		<g>
			<path class="st15" d="M502.84,264.72h-6.85c-3.46,0-6.28,2.83-6.28,6.28l0,0c0,3.46,2.83,6.28,6.28,6.28h6.85
				c3.46,0,6.28-2.83,6.28-6.28l0,0C509.13,267.54,506.3,264.72,502.84,264.72z"/>
		</g>
		<text transform="matrix(1 0 0 1 463.9839 276.0804)" class="st105 st119">_______</text>
	</g>
	<g>
		<g>
			<path class="st15" d="M554.14,264.72h-6.85c-3.46,0-6.28,2.83-6.28,6.28l0,0c0,3.46,2.83,6.28,6.28,6.28h6.85
				c3.46,0,6.28-2.83,6.28-6.28l0,0C560.42,267.54,557.6,264.72,554.14,264.72z"/>
		</g>
		<text transform="matrix(1 0 0 1 515.2823 276.0804)" class="st105 st119">_______</text>
	</g>
	<g>
		<g>
			<text transform="matrix(1 0 0 1 427.7184 292.3687)" class="st105 st119">AUX</text>
		</g>
	</g>
	<g>
		<g>
			<path class="st15" d="M502.84,281.01h-6.85c-3.46,0-6.28,2.83-6.28,6.28l0,0c0,3.46,2.83,6.28,6.28,6.28h6.85
				c3.46,0,6.28-2.83,6.28-6.28l0,0C509.13,283.83,506.3,281.01,502.84,281.01z"/>
		</g>
		<text transform="matrix(1 0 0 1 463.9839 292.3686)" class="st105 st119">_______</text>
	</g>
	<g>
		<g>
			<path class="st15" d="M554.14,281.01h-6.85c-3.46,0-6.28,2.83-6.28,6.28l0,0c0,3.46,2.83,6.28,6.28,6.28h6.85
				c3.46,0,6.28-2.83,6.28-6.28l0,0C560.42,283.83,557.6,281.01,554.14,281.01z"/>
		</g>
		<text transform="matrix(1 0 0 1 515.2823 292.3686)" class="st105 st119">_______</text>
	</g>
</g>
<g>
	<g>
		<g>
			<text transform="matrix(1 0 0 1 420.7882 309.7669)" class="st105 st119">Alineación Luz Baja</text>
		</g>
		
			<linearGradient id="SVGID_00000055683451686559626340000001715552116741008306_" gradientUnits="userSpaceOnUse" x1="416.52" y1="527.6804" x2="565.6" y2="527.6804" gradientTransform="matrix(1 0 0 -1 0 840.8504)">
			<stop  offset="0" style="stop-color:#14356E"/>
			<stop  offset="0.0371" style="stop-color:#16366F"/>
			<stop  offset="0.6611" style="stop-color:#285286"/>
			<stop  offset="1" style="stop-color:#305E90"/>
		</linearGradient>
		
			<line style="fill:none;stroke:url(#SVGID_00000055683451686559626340000001715552116741008306_);stroke-width:0.75;stroke-miterlimit:10;" x1="416.52" y1="313.17" x2="565.6" y2="313.17"/>
	</g>
	<g>
		<g>
			<text transform="matrix(1 0 0 1 481.1644 322.7669)" class="st105 st119">IZQUIERDA</text>
		</g>
		<g>
			<text transform="matrix(1 0 0 1 533.4094 322.7669)" class="st105 st119">DERECHA</text>
		</g>
		<g>
			<g>
				<text transform="matrix(1 0 0 1 422.608 338.9808)" class="st105 st119">VERTICAL</text>
			</g>
		</g>
		<g>
			<g>
				<path class="st15" d="M503.46,327.62h-6.85c-3.46,0-6.28,2.83-6.28,6.28l0,0c0,3.46,2.83,6.28,6.28,6.28h6.85
					c3.46,0,6.28-2.83,6.28-6.28l0,0C509.74,330.44,506.91,327.62,503.46,327.62z"/>
			</g>
			<text transform="matrix(1 0 0 1 464.6001 338.9806)" class="st105 st119">_______</text>
		</g>
		<g>
			<g>
				<path class="st15" d="M554.76,327.62h-6.85c-3.46,0-6.28,2.83-6.28,6.28l0,0c0,3.46,2.83,6.28,6.28,6.28h6.85
					c3.46,0,6.28-2.83,6.28-6.28l0,0C561.04,330.44,558.21,327.62,554.76,327.62z"/>
			</g>
			<text transform="matrix(1 0 0 1 515.8986 338.9806)" class="st105 st119">_______</text>
		</g>
		<g>
			<g>
				<text transform="matrix(1 0 0 1 416.8375 355.2689)" class="st105 st119">HORIZONTAL</text>
			</g>
		</g>
		<g>
			<g>
				<path class="st15" d="M503.46,343.91h-6.85c-3.46,0-6.28,2.83-6.28,6.28l0,0c0,3.46,2.83,6.28,6.28,6.28h6.85
					c3.46,0,6.28-2.83,6.28-6.28l0,0C509.74,346.73,506.91,343.91,503.46,343.91z"/>
			</g>
			<text transform="matrix(1 0 0 1 464.6001 355.2687)" class="st105 st119">_______</text>
		</g>
		<g>
			<g>
				<path class="st15" d="M554.76,343.91h-6.85c-3.46,0-6.28,2.83-6.28,6.28l0,0c0,3.46,2.83,6.28,6.28,6.28h6.85
					c3.46,0,6.28-2.83,6.28-6.28l0,0C561.04,346.73,558.21,343.91,554.76,343.91z"/>
			</g>
			<text transform="matrix(1 0 0 1 515.8986 355.2687)" class="st105 st119">_______</text>
		</g>
	</g>
</g>
<g>
	<g>
		<text transform="matrix(1 0 0 1 419.0861 436.979)" class="st105 st119">Nafta / Gas</text>
	</g>
	
		<linearGradient id="SVGID_00000047759513237685837380000016136754736036727464_" gradientUnits="userSpaceOnUse" x1="416.52" y1="400.4704" x2="565.6" y2="400.4704" gradientTransform="matrix(1 0 0 -1 0 840.8504)">
		<stop  offset="0" style="stop-color:#14356E"/>
		<stop  offset="0.0371" style="stop-color:#16366F"/>
		<stop  offset="0.6611" style="stop-color:#285286"/>
		<stop  offset="1" style="stop-color:#305E90"/>
	</linearGradient>
	
		<line style="fill:none;stroke:url(#SVGID_00000047759513237685837380000016136754736036727464_);stroke-width:0.75;stroke-miterlimit:10;" x1="416.52" y1="440.38" x2="565.6" y2="440.38"/>
</g>
<g>
	<g>
		<text transform="matrix(1 0 0 1 455.8579 458.1928)" class="st105 st119">CO [%]</text>
	</g>
</g>
<g>
	<g>
		<path class="st15" d="M530.32,446.83h-6.85c-3.46,0-6.28,2.83-6.28,6.28l0,0c0,3.46,2.83,6.28,6.28,6.28h6.85
			c3.46,0,6.28-2.83,6.28-6.28l0,0C536.6,449.66,533.77,446.83,530.32,446.83z"/>
	</g>
	<text transform="matrix(1 0 0 1 491.459 458.1927)" class="st105 st119">_______</text>
</g>
<g>
	<g>
		<text transform="matrix(1 0 0 1 451.0312 474.481)" class="st105 st119">HC [ppm]</text>
	</g>
</g>
<g>
	<g>
		<path class="st15" d="M530.32,463.12h-6.85c-3.46,0-6.28,2.83-6.28,6.28l0,0c0,3.46,2.83,6.28,6.28,6.28h6.85
			c3.46,0,6.28-2.83,6.28-6.28l0,0C536.6,465.94,533.77,463.12,530.32,463.12z"/>
	</g>
	<text transform="matrix(1 0 0 1 491.459 474.4808)" class="st105 st119">_______</text>
</g>
<g>
	<g>
		<text transform="matrix(1 0 0 1 449.4805 490.7268)" class="st105 st119">Nox [ppm]</text>
	</g>
</g>
<g>
	<g>
		<path class="st15" d="M530.32,479.36h-6.85c-3.46,0-6.28,2.83-6.28,6.28l0,0c0,3.46,2.83,6.28,6.28,6.28h6.85
			c3.46,0,6.28-2.83,6.28-6.28l0,0C536.6,482.19,533.77,479.36,530.32,479.36z"/>
	</g>
	<text transform="matrix(1 0 0 1 491.459 490.7267)" class="st105 st119">_______</text>
</g>
<g>
	<g>
		<text transform="matrix(1 0 0 1 419.0792 505.5422)" class="st105 st119">Diesel</text>
	</g>
	
		<linearGradient id="SVGID_00000062159137350748997440000013623342328641964212_" gradientUnits="userSpaceOnUse" x1="416.52" y1="331.9104" x2="565.6" y2="331.9104" gradientTransform="matrix(1 0 0 -1 0 840.8504)">
		<stop  offset="0" style="stop-color:#14356E"/>
		<stop  offset="0.0371" style="stop-color:#16366F"/>
		<stop  offset="0.6611" style="stop-color:#285286"/>
		<stop  offset="1" style="stop-color:#305E90"/>
	</linearGradient>
	
		<line style="fill:none;stroke:url(#SVGID_00000062159137350748997440000013623342328641964212_);stroke-width:0.75;stroke-miterlimit:10;" x1="416.52" y1="508.94" x2="565.6" y2="508.94"/>
</g>
<g>
	<g>
		<g>
			<text transform="matrix(1 0 0 1 445.6143 522.756)" class="st105 st119">OPACIDAD </text>
			<text transform="matrix(1 0 0 1 446.0443 531.756)" class="st105 st119">PROMEDIO</text>
		</g>
	</g>
	<g>
		<g>
			<path class="st15" d="M530.91,519.39h-6.85c-3.46,0-6.28,2.83-6.28,6.28l0,0c0,3.46,2.83,6.28,6.28,6.28h6.85
				c3.46,0,6.28-2.83,6.28-6.28l0,0C537.19,522.22,534.37,519.39,530.91,519.39z"/>
		</g>
		<text transform="matrix(1 0 0 1 492.0532 530.7559)" class="st105 st119">_______</text>
	</g>
</g>
<g>
	<g>
		<g>
			<text transform="matrix(1 0 0 1 444.627 396.6948)" class="st105 st119">INTENSIDAD</text>
			<text transform="matrix(1 0 0 1 451.137 405.6948)" class="st105 st119">SONORA</text>
		</g>
	</g>
	<g>
		<g>
			<path class="st15" d="M530.12,394.33h-6.85c-3.46,0-6.28,2.83-6.28,6.28l0,0c0,3.46,2.83,6.28,6.28,6.28h6.85
				c3.46,0,6.28-2.83,6.28-6.28l0,0C536.4,397.16,533.57,394.33,530.12,394.33z"/>
		</g>
		<text transform="matrix(1 0 0 1 491.2593 405.6947)" class="st105 st119">_______</text>
	</g>
</g>
<g>
	<text transform="matrix(1 0 0 1 20.4274 834.7078)"><tspan x="0" y="0" class="st107 st119">*Si el vencimiento coincide con domingo o feriado, el mismo </tspan><tspan x="203.97" y="0" class="st290 st119">se traslada al día hábil inmediato anterior </tspan></text>
</g>
<g>
	<g>
		<g>
			<defs>
				<path id="SVGID_00000048494307638150043140000001624953299193568384_" d="M193.55,300.24L193.55,300.24
					c-4.08,0-7.41-3.34-7.41-7.41v-22.51c0-4.08,3.34-7.41,7.41-7.41l0,0c4.08,0,7.41,3.34,7.41,7.41v22.51
					C200.96,296.91,197.63,300.24,193.55,300.24z"/>
			</defs>
			<clipPath id="SVGID_00000072253065976535980070000004012880945223555464_">
				<use xlink:href="#SVGID_00000048494307638150043140000001624953299193568384_"  style="overflow:visible;"/>
			</clipPath>
			<g style="clip-path:url(#SVGID_00000072253065976535980070000004012880945223555464_);">
				<path class="st292" d="M200.96,262.9v34.54c0,1.55-1.25,2.8-2.79,2.8h-9.24c-1.54,0-2.79-1.25-2.79-2.8V262.9H200.96z"/>
				<path class="st293" d="M200.96,288.47l-14.75,9.58c-0.04-0.2-0.07-0.4-0.07-0.6V262.9h14.82L200.96,288.47L200.96,288.47z"/>
			</g>
		</g>
	</g>
	<g>
		<g>
			<defs>
				<path id="SVGID_00000100379942208147007150000017602604072768614811_" d="M309.49,300.24L309.49,300.24
					c-4.08,0-7.41-3.34-7.41-7.41v-22.51c0-4.08,3.34-7.41,7.41-7.41l0,0c4.08,0,7.41,3.34,7.41,7.41v22.51
					C316.9,296.91,313.56,300.24,309.49,300.24z"/>
			</defs>
			<clipPath id="SVGID_00000141433703429726740510000016040053144161275047_">
				<use xlink:href="#SVGID_00000100379942208147007150000017602604072768614811_"  style="overflow:visible;"/>
			</clipPath>
			<g style="clip-path:url(#SVGID_00000141433703429726740510000016040053144161275047_);">
				<path class="st292" d="M316.9,262.9v34.54c0,1.55-1.25,2.8-2.79,2.8h-9.24c-1.54,0-2.79-1.25-2.79-2.8V262.9H316.9z"/>
				<path class="st293" d="M316.9,288.47l-14.75,9.58c-0.04-0.2-0.07-0.4-0.07-0.6V262.9h14.82V288.47z"/>
			</g>
		</g>
	</g>
	<g>
		<g>
			<defs>
				<path id="SVGID_00000041986471965836779950000007743251801174022036_" d="M193.55,481.56L193.55,481.56
					c-4.08,0-7.41-3.34-7.41-7.41v-22.51c0-4.08,3.34-7.41,7.41-7.41l0,0c4.08,0,7.41,3.34,7.41,7.41v22.51
					C200.96,478.22,197.63,481.56,193.55,481.56z"/>
			</defs>
			<clipPath id="SVGID_00000170279744599139633270000004164219538012900785_">
				<use xlink:href="#SVGID_00000041986471965836779950000007743251801174022036_"  style="overflow:visible;"/>
			</clipPath>
			<g style="clip-path:url(#SVGID_00000170279744599139633270000004164219538012900785_);">
				<path class="st292" d="M200.96,444.22v34.54c0,1.55-1.25,2.8-2.79,2.8h-9.24c-1.54,0-2.79-1.25-2.79-2.8v-34.54H200.96z"/>
				<path class="st293" d="M200.96,469.78l-14.75,9.58c-0.04-0.2-0.07-0.4-0.07-0.6v-34.54h14.82L200.96,469.78L200.96,469.78z"/>
			</g>
		</g>
	</g>
	<g>
		<g>
			<defs>
				<path id="SVGID_00000072238930550428478830000016663305780956540862_" d="M309.49,481.56L309.49,481.56
					c-4.08,0-7.41-3.34-7.41-7.41v-22.51c0-4.08,3.34-7.41,7.41-7.41l0,0c4.08,0,7.41,3.34,7.41,7.41v22.51
					C316.9,478.22,313.56,481.56,309.49,481.56z"/>
			</defs>
			<clipPath id="SVGID_00000160181990159344871290000009630717010303629956_">
				<use xlink:href="#SVGID_00000072238930550428478830000016663305780956540862_"  style="overflow:visible;"/>
			</clipPath>
			<g style="clip-path:url(#SVGID_00000160181990159344871290000009630717010303629956_);">
				<path class="st292" d="M316.9,444.22v34.54c0,1.55-1.25,2.8-2.79,2.8h-9.24c-1.54,0-2.79-1.25-2.79-2.8v-34.54H316.9z"/>
				<path class="st293" d="M316.9,469.78l-14.75,9.58c-0.04-0.2-0.07-0.4-0.07-0.6v-34.54h14.82V469.78z"/>
			</g>
		</g>
	</g>
	<g>
		
			<linearGradient id="SVGID_00000104663766674036615120000002227599938552267421_" gradientUnits="userSpaceOnUse" x1="192.04" y1="371.1827" x2="311.12" y2="371.1827">
			<stop  offset="0" style="stop-color:#FF1F3D"/>
			<stop  offset="1" style="stop-color:#E8203B"/>
		</linearGradient>
		<path style="fill:url(#SVGID_00000104663766674036615120000002227599938552267421_);" d="M311.12,300.96v-39.87l-6.13-13.24
			c0,0-0.55-15.29-9.4-21.98c-8.86-6.69-20.98-12.7-44.01-12.7c-23.02,0-35.15,6.01-44.01,12.7c-8.86,6.69-9.4,21.98-9.4,21.98
			l-6.13,13.24v39.87l2.59,4.51v126.42l-2.59,12.15v36.18l4.29,7.3c0,0,0.07,5.67,1.98,16.72c5.45,27.99,53.27,24.85,53.27,24.85
			s47.82,3.14,53.27-24.85c1.91-11.06,1.98-16.72,1.98-16.72l4.29-7.3v-36.18l-2.59-12.15V305.46L311.12,300.96z"/>
		<path class="st298" d="M251.58,213.17v315.92c0,0,47.82,3.14,53.27-24.85c1.91-11.06,1.98-16.72,1.98-16.72l4.29-7.3v-36.18
			l-2.59-12.15V305.46l2.59-4.51v-39.87l-6.13-13.24c0,0-0.55-15.29-9.4-21.98C286.73,219.18,274.61,213.17,251.58,213.17z"/>
		
			<linearGradient id="SVGID_00000008860068923551511550000008501639893727219646_" gradientUnits="userSpaceOnUse" x1="215.13" y1="260.98" x2="251.58" y2="260.98">
			<stop  offset="0" style="stop-color:#FF1F3D"/>
			<stop  offset="1" style="stop-color:#E8203B"/>
		</linearGradient>
		<polygon style="fill:url(#SVGID_00000008860068923551511550000008501639893727219646_);" points="251.58,218.8 225.83,223.16 
			215.13,303.16 251.58,296.72 		"/>
		<polygon class="st298" points="251.58,218.8 277.33,223.16 288.04,303.16 251.58,296.72 		"/>
		<path class="st110" d="M201.17,313.66c0,0,16.35,45.26,12.67,87.24c-3.68,41.98-5.45,55.16-10.49,69.9
			C202.26,448.68,199,325.67,201.17,313.66z"/>
		
			<linearGradient id="SVGID_00000077291021220679740850000013677494214890092931_" gradientUnits="userSpaceOnUse" x1="211.93" y1="506.6998" x2="251.58" y2="506.6998">
			<stop  offset="0" style="stop-color:#FF1F3D"/>
			<stop  offset="1" style="stop-color:#E8203B"/>
		</linearGradient>
		<path style="fill:url(#SVGID_00000077291021220679740850000013677494214890092931_);" d="M251.58,495.1
			c-33.65,0-39.64-8.46-39.65-8.46l0.48,26.59c0,0-1.94,8.29,11.44,11.06c13.39,2.76,27.73,2.46,27.73,2.46L251.58,495.1
			L251.58,495.1z"/>
		<path class="st301" d="M212.41,513.22c0,0-9.36-2.61-12.6-12.25l-0.89,5.72c0,0,5.72,12.11,15.67,13.13l0,0
			C211.62,516.64,212.41,513.22,212.41,513.22z"/>
		<path class="st302" d="M228.01,219.11l-2.18,6.14c0,0,8.58-3.21,25.75-3.21v-6.14C243.41,215.9,230.06,218.29,228.01,219.11z"/>
		<path class="st303" d="M224.81,221.71l-1.33,4.13c-0.32,1-1.07,1.8-2.05,2.18c-4.6,1.8-18.12,7.66-20.57,15.19v-5.46
			C200.87,237.75,206.66,227.18,224.81,221.71z"/>
		<path class="st304" d="M224.81,221.71l-1.33,4.13c-0.13,0.41-0.35,0.78-0.62,1.11v0.02l-7.13,69.85l1.13-0.45l8.97-71.11
			l2.18-6.14L224.81,221.71z"/>
		<g>
			<path class="st305" d="M200.88,379.59c0.04,2.2,0.08,4.41,0.12,6.63l13.38,3.53c0.01-1.41,0.01-2.81-0.01-4.21L200.88,379.59z"/>
			<path class="st305" d="M202.49,446.89l8.19-13.12c0.11-1.01,0.23-2.04,0.34-3.11l-8.62,13.35
				C202.44,445,202.46,445.95,202.49,446.89z"/>
		</g>
		<path class="st304" d="M192.05,261.09v39.87l2.59,4.51v126.42l-2.59,12.15v36.18l4.29,7.3c0,0,0.07,5.67,1.98,16.72
			c0.16,0.84,0.37,1.66,0.61,2.44l0.89-5.72c0,0-4.77-75.06-3.75-111.22s-0.41-122.78,4.8-146.54v-5.46l-0.62-0.68
			c-1.89,5.63-2.07,10.78-2.07,10.78L192.05,261.09z"/>
		<path class="st306" d="M199.34,321.5l-7.7,3.08c-1.34,0.54-2.5,1.44-3.35,2.61l-0.89,1.23c-0.69,0.96,0.21,2.26,1.35,1.94
			l8.84-2.5c0.9-0.25,1.58-0.99,1.78-1.9l0.16-0.76l0.99-0.29c0.45-0.13,0.83-0.43,1.06-0.83c0.01-0.01,0.01-0.03,0.02-0.04
			C202.42,322.55,200.9,320.88,199.34,321.5z"/>
		<path class="st110" d="M301.99,313.66c0,0-16.35,45.26-12.67,87.24s5.45,55.16,10.49,69.9
			C300.9,448.68,304.17,325.67,301.99,313.66z"/>
		<path class="st298" d="M251.58,495.1c33.65,0,39.64-8.46,39.65-8.46l-0.48,26.59c0,0,1.94,8.29-11.44,11.06
			c-13.39,2.76-27.73,2.46-27.73,2.46V495.1z"/>
		<path class="st301" d="M290.75,513.22c0,0,9.36-2.61,12.6-12.25l0.89,5.72c0,0-5.72,12.11-15.67,13.13l0,0
			C291.55,516.64,290.75,513.22,290.75,513.22z"/>
		<path class="st110" d="M275.15,219.11l2.18,6.14c0,0-8.58-3.21-25.75-3.21v-6.14C259.76,215.9,273.11,218.29,275.15,219.11z"/>
		<path class="st303" d="M278.36,221.71l1.33,4.13c0.32,1,1.07,1.8,2.05,2.18c4.6,1.8,18.12,7.66,20.57,15.19v-5.46
			C302.3,237.75,296.51,227.18,278.36,221.71z"/>
		<path class="st304" d="M278.36,221.71l1.33,4.13c0.13,0.41,0.35,0.78,0.62,1.11v0.02l7.13,69.85l-1.13-0.45l-8.97-71.11
			l-2.18-6.14L278.36,221.71z"/>
		<path class="st305" d="M302.29,379.59c-0.04,2.2-0.08,4.41-0.12,6.63l-13.38,3.53c-0.01-1.41-0.01-2.81,0.01-4.21L302.29,379.59z"
			/>
		<path class="st305" d="M300.67,446.89l-8.19-13.12c-0.11-1.01-0.23-2.04-0.34-3.11l8.62,13.35
			C300.73,445,300.7,445.95,300.67,446.89z"/>
		<path class="st304" d="M311.12,261.09v39.87l-2.59,4.51v126.42l2.59,12.15v36.18l-4.29,7.3c0,0-0.07,5.67-1.98,16.72
			c-0.16,0.84-0.37,1.66-0.61,2.44l-0.89-5.72c0,0,4.77-75.06,3.75-111.22s0.41-122.78-4.8-146.54v-5.46l0.62-0.68
			c1.89,5.63,2.07,10.78,2.07,10.78L311.12,261.09z"/>
		<path class="st307" d="M303.83,321.5l7.7,3.08c1.34,0.54,2.5,1.44,3.35,2.61l0.89,1.23c0.69,0.96-0.21,2.26-1.35,1.94l-8.84-2.5
			c-0.9-0.25-1.58-0.99-1.78-1.9l-0.16-0.76l-0.99-0.29c-0.45-0.13-0.83-0.43-1.06-0.83c-0.01-0.01-0.01-0.03-0.02-0.04
			C300.75,322.55,302.26,320.88,303.83,321.5z"/>
		<g>
			<g>
				<path class="st304" d="M216.74,447.12l-0.82-0.06c5.6-74.93-2.94-105.24-3.02-105.54l0.78-0.23
					C213.78,341.59,222.35,372.01,216.74,447.12z"/>
			</g>
		</g>
		<g>
			<g>
				<path class="st304" d="M286.43,447.12l0.82-0.06c-5.6-74.93,2.94-105.24,3.02-105.54l-0.78-0.23
					C289.39,341.59,280.81,372.01,286.43,447.12z"/>
			</g>
		</g>
		<path class="st302" d="M214.36,348.26c0,0,13.35-3.48,37.23-3.48v-53.76c0,0-28.64-0.92-43.97,10.24
			c-3.88,2.97-4.5,5.32-3.88,7.27C204.34,310.48,214.36,348.26,214.36,348.26z"/>
		<path class="st302" d="M216.16,443.35l-4.22,43.28c0,0,5.99,8.46,39.65,8.46v-49.01C251.58,446.08,227.33,445.81,216.16,443.35z"
			/>
		<path class="st110" d="M288.81,348.26c0,0-13.35-3.48-37.23-3.48v-53.76c0,0,28.64-0.92,43.97,10.24c3.88,2.97,4.5,5.32,3.88,7.27
			C298.83,310.48,288.81,348.26,288.81,348.26z"/>
		<path class="st110" d="M287.01,443.35l4.22,43.28c0,0-5.99,8.46-39.65,8.46v-49.01C251.58,446.08,275.84,445.81,287.01,443.35z"/>
		<g>
			<path class="st292" d="M220.36,347.08c1.44-0.24,3.13-0.49,5.06-0.74l-7.86-50.23c-3.11,1.16-6.07,2.57-8.7,4.31L220.36,347.08z"
				/>
			<path class="st292" d="M231.29,292.56c-2.97,0.5-6.04,1.16-9.08,2.02l5.68,51.45c1.38-0.16,2.86-0.31,4.43-0.44L231.29,292.56z"
				/>
		</g>
		<path class="st292" d="M216.78,489.88c1.88,0.87,4.44,1.8,7.87,2.63l2.13-47.66c-1.93-0.18-3.81-0.39-5.56-0.63L216.78,489.88z"/>
		<path class="st305" d="M286.39,489.88c-1.88,0.87-4.44,1.8-7.87,2.63l-2.13-47.66c1.93-0.18,3.81-0.39,5.56-0.63L286.39,489.88z"
			/>
		<path class="st292" d="M239.58,445.71c-2.6-0.12-5.42-0.28-8.25-0.48l-1.83,48.27c2.88,0.49,6.23,0.9,10.08,1.18V445.71z"/>
		<g>
			<path class="st305" d="M213.41,405.78c0.14-1.59,0.28-3.2,0.43-4.88c0.09-1.02,0.16-2.03,0.23-3.05l-12.87-1.08
				c0.08,3.78,0.16,7.55,0.25,11.27L213.41,405.78z"/>
			<path class="st305" d="M200.62,362.58l12.96,8.62c-0.5-5.46-1.21-10.76-2.03-15.81l-11.08-10.33
				C200.48,350.49,200.54,356.39,200.62,362.58z"/>
		</g>
		<g>
			<path class="st3" d="M221.74,227.86c-0.7-0.58-1.67-0.94-2.73-0.94c-2.14,0-3.88,1.45-3.88,3.24c0,0.21,0.03,0.42,0.08,0.62
				c2.54-1.26,4.81-2.21,6.24-2.76C221.55,227.97,221.64,227.91,221.74,227.86z"/>
			<path class="st3" d="M210.37,232.1c-1.36,0-2.47,0.86-2.47,1.91c0,0.31,0.11,0.61,0.28,0.87c1.2-0.84,2.47-1.63,3.73-2.35
				C211.49,232.27,210.96,232.1,210.37,232.1z"/>
		</g>
		<g>
			<path class="st3" d="M281.43,227.86c0.7-0.58,1.67-0.94,2.73-0.94c2.14,0,3.88,1.45,3.88,3.24c0,0.21-0.03,0.42-0.08,0.62
				c-2.54-1.26-4.81-2.21-6.24-2.76C281.62,227.97,281.53,227.91,281.43,227.86z"/>
			<path class="st3" d="M292.8,232.1c1.36,0,2.47,0.86,2.47,1.91c0,0.31-0.11,0.61-0.28,0.87c-1.2-0.84-2.47-1.63-3.73-2.35
				C291.68,232.27,292.21,232.1,292.8,232.1z"/>
		</g>
		<path class="st305" d="M282.81,347.08c-1.44-0.24-3.13-0.49-5.06-0.74l7.86-50.23c3.11,1.16,6.07,2.57,8.7,4.31L282.81,347.08z"/>
	</g>
</g>
</svg>
